<svg xmlns="http://www.w3.org/2000/svg" width="1009" height="773"><path fill="#F65399" d="M505 67v2l4 1v2l4 1v2l4 2v2h2v2l4 1v2h2v3l4 1v2l4 2v2h2v2h2c2.125 1.875 2.125 1.875 4 4v2h2c4 4.47 4 4.47 4 7h2v2h2v3h2v2h2v3l4 1v3h2v3h2c4 5.412 4 5.412 4 8h2l1.375 2.938c1.283 3.133 1.283 3.133 3.625 4.062v3h2v3h2v3h2c1.46 2.647 2 3.894 2 7h2v4h2v3h2v3h2v4h2v3h2v5h2v3h2c1.257 2.906 2 4.796 2 8h2v4h2v5h2v4h2v5h2v4h2c1.423 3.823 2.24 6.913 2 11h2v6h2c1.802 3.83 2.196 6.781 2 11h2v7h2l.438 3.438c.174 3.37.174 3.37 1.562 4.562.04 2 .043 4 0 6h2l.438 3.438c.174 3.37.174 3.37 1.562 4.562.283 1.398.513 2.807.719 4.219l.386 2.574.79 5.414.386 2.574.346 2.377c.198 1.852.198 1.852 1.373 2.842.208 1.474.367 2.955.5 4.438.291 3.407.291 3.407 1.5 6.562a231 231 0 0 1 1 7.688l.25 2.048c1.48 12.733 1.919 25.468 1.953 38.276l.009 2.226q.022 5.845.028 11.69.007 4.725.041 9.45c.372 52.315.372 52.315-4.281 61.622-.203 1.83-.365 3.664-.5 5.5-.389 5.278-.389 5.278-1.5 7.5a132 132 0 0 0-.375 4.625c-.38 4.2-1.268 7.629-2.863 11.512-2.255 5.514-3.144 10.991-3.762 16.863h-2l.188 2.563c-.221 4.045-1.52 6.768-3.188 10.437-.691 2.779-.691 2.779-1 5h-2l.188 2.563c-.221 4.044-1.496 6.782-3.188 10.437-.373 1.323-.73 2.652-1 4h-2l.125 2.125c-.142 3.259-.992 5.831-2.125 8.875h-2l-.437 2.25c-.465 2.27-.982 4.508-1.563 6.75h-2v4h-2v5h-2v3h-2v4h-2v4h-2v4h-2v4h-2v3h-2v3h-2v3h-2v5h-2l-2 6h-2v3h-2v3h-2v3h-2l-.362 1.79c-.658 2.28-1.458 3.657-2.853 5.558l-1.33 1.834-1.393 1.88-2.714 3.723L561 609l-2 3h-2v2h-2l-2 4h-2v3h-2v3h-2v2h-2l-2 4h-2v2h-2l-2 4h-2v2h-2v3l-4 1v2h-2v3l-4 1v2l-4 1v2l-1.875.188L515 654l-1 2.5-1 2.5c-2.125.813-2.125.813-4 1v2h-2v2c-2.986 1.493-5.709 1.118-9 1l-2-1v-2l-1.875-.937L490 659v-2l-4-1v-2h-2c-2.125-1.875-2.125-1.875-4-4v-2l-4-1v-2l-4-1v-2h-2c-2.125-1.875-2.125-1.875-4-4v-2h-2v-3l-4-2v-2h-2v-2l-3-1c-1.687-1.375-1.687-1.375-3-3v-3h-2v-2h-2v-3l-1.766-.691c-2.832-1.66-4.13-3.55-5.984-6.246l-1.86-2.653C437 603 437 603 437 600h-2v-3h-2v-2h-2v-3h-2v-4h-2v-3h-2v-2h-2v-3h-2v-4h-2v-3h-2v-3h-2v-3h-2v-3h-2v-5h-2v-3h-2v-4h-2c-1.765-3.088-2-4.233-2-8h-2v-4h-2c-1.765-3.088-2-4.233-2-8h-2v-5h-2c-1.604-3.508-2.22-6.144-2-10h-2c-1.423-3.823-2.24-6.913-2-11h-2l-.55-1.906c-1.231-4.19-2.49-8.297-4.137-12.344-1.248-3.564-1.593-6.02-1.313-9.75h-2c-.182-.8-.364-1.598-.55-2.422-1.294-5.65-2.62-11.28-4.075-16.89-1.91-7.617-2.538-14.842-2.375-22.688h-2v-11h-2v-15h-2l-.076-1.912q-.175-4.263-.361-8.526l-.12-3.01-.127-2.86-.11-2.65c.012-2.035.012-2.035-1.206-3.042a76 76 0 0 1-.114-4.703v-3.034l.016-3.298.005-3.359c.005-3.556.018-7.112.03-10.668q.009-3.608.014-7.213.017-8.863.049-17.725h2v-22h2l-.035-3.246q-.015-2.095-.027-4.192l-.026-2.142c-.009-1.807.036-3.614.088-5.42l1-1c.234-1.849.413-3.705.563-5.562l.253-3.067L368 293h2l-.105-1.625c-.383-11.088 2.287-22.06 5.355-32.652.864-3.137 1.556-6.295 2.25-9.473 1.065-4.71 2.504-8.842 4.5-13.25.817-2.528 1.565-5.07 2.305-7.621.824-2.82 1.744-5.6 2.695-8.379h2v-5h2l-.125-2.187c.134-3.02.877-5.082 2.125-7.813h2v-5h2v-4h2v-5h2l.402-1.734c.592-2.243 1.33-4.352 2.16-6.516l.817-2.14L405 179h2v-3h2l.313-1.562c.93-3.298 2.301-6.304 3.687-9.438h2v-4h2v-3h2v-3h2v-3h2v-3h2v-3h2v-3h2v-3h2v-3h2v-3h2v-2h2l.25-1.625c1.026-3.248 2.716-5.663 4.75-8.375h2l2-5h2v-3a141 141 0 0 1 5-5l1.688-2.312L456 105h2v-2c1.875-2.125 1.875-2.125 4-4h2v-2h2v-3l4-1v-2h2v-3l4-1v-2l1.875-.187L480 84l1-2.5 1-2.5c2.125-.812 2.125-.812 4-1v-2l4-1v-2l4-1v-3c3.634-2.326 6.77-2.163 11-2"/><path fill="#F13B88" d="M155.462 412.87q3.154.005 6.31-.007C185.7 412.85 185.7 412.85 190 415a81 81 0 0 0 4.219.465l2.559.232 2.722.24q2.764.266 5.527.54l2.516.244c8.423.956 16.522 3.297 24.684 5.515 4.242 1.145 8.415 2.138 12.773 2.764v2l10 1v2l3.375.25c4.26.536 7.817 1.89 11.75 3.562 3.46 1.43 6.972 2.691 10.5 3.938l3.664 1.297L287 440v2l2.75.125c5.907.792 11.073 4.095 16.25 6.875v2l6 1v2l6 1v2l6 1v2l2.875.937C330 462 330 462 332 463v3h2v3h2v9h2v8h2l.313 3.062c.525 3.959.525 3.959 2.25 7.438 1.552 3.78 1.685 6.457 1.437 10.5h2v6h2c1.316 3.62 2 6.096 2 10h2v5h2v6h2c1.498 3.371 2 5.204 2 9h2l.953 2.562c2.864 7.64 2.864 7.64 6.36 15C369 564 369 564 369 568h2v4h2v4h2v3h2v5h2v3h2v3h2c1.46 2.647 2 3.894 2 7h2v3h2c4 5.294 4 5.294 4 9h2v2h2v3h2v3h2v3h2v3h2v3h2v2h2l2 5h2v3h2v2h2v3h2v2h2c4 4.47 4 4.47 4 7h2l.813 2.437L429 655l3 1c1.605 1.559 1.605 1.559 3.188 3.437l1.605 1.872C438 663 438 663 438 665h2v2l4 1v3h2v2l4 1v2l1.875.187C454 677 454 677 455.25 679.562L456 682h2v5c-7.318 4.008-15.74 5.477-24 5v2l-1.82.168q-4.06.379-8.117.77l-2.866.263-2.724.264-2.524.238c-1.95.1-1.95.1-2.949 1.297-4.834.574-9.705.824-14.562 1.125l-2.215.14C376.75 699.453 356.332 699.839 337 697l-1-1c-1.4-.214-2.809-.37-4.219-.5l-2.574-.25-2.707-.25q-2.64-.245-5.281-.5l-2.377-.219C317 694 317 694 316 693c-2.18-.397-4.37-.743-6.562-1.063l-3.63-.535L303 691v-2l-2.414-.148-3.211-.227c-1.044-.07-2.088-.14-3.164-.21-3.311-.428-6.072-1.296-9.211-2.415a916 916 0 0 0-6.75-1.875c-5.02-1.423-9.81-3.034-14.613-5.059-3.237-1.309-6.524-2.429-9.824-3.566-5.011-1.764-9.285-3.765-13.813-6.5-1.981-.72-3.977-1.408-6-2v-2l-6-1v-2l-2.187-.375c-2.77-.615-5.21-1.51-7.813-2.625v-2l-2.187-.875L208 653v-2l-2.75-.875c-2.572-.89-4.863-1.84-7.25-3.125v-2l-2.187-.875L188 641v-2l-4-1v-2l-4-1v-2l-4-1v-2l-4-1v-2l-3-1v-2l-4-1v-2l-4-1v-2l-4-1v-2l-4-2v-2h-2v-2l-4-1v-2l-4-2v-2h-2v-2l-4-2v-2h-2v-2l-4-2v-2h-2v-2h-2v-2h-2c-2.125-1.813-2.125-1.813-4-4v-3h-2l-2-5h-2v-3h-2c-4-4.47-4-4.47-4-7h-2c-1.29-1.645-1.29-1.645-2.625-3.813l-1.352-2.144C102 556 102 556 102 553h-2v-3h-2v-3h-2v-3h-2v-3h-2v-3h-2v-3h-2v-4h-2v-3h-2c-1.765-3.088-2-4.233-2-8h-2v-3h-2q-.722-1.874-1.437-3.75l-.81-2.11c-.714-2.03-1.267-4.044-1.753-6.14h-2v-5h-2c-1.316-3.62-2-6.096-2-10h-2v-5h-2v-7h-2v-6h-2l-.621-3.027-.816-3.91-.81-3.903c-.425-3.006-.425-3.006-1.753-4.16a92 92 0 0 1-.062-5.063l.027-2.785L56 447h-2v-9h-2v-4h2l1-3 9-1v-2l8-1v-2c9.765-3.117 19.509-4.975 29.629-6.535 2.318-.226 2.318-.226 3.371-1.465a78 78 0 0 1 4.438-.5l2.71-.25 5.704-.5 2.71-.25 2.504-.219c1.937-.085 1.937-.085 2.934-1.281 9.775-1.09 19.637-1.16 29.462-1.13"/><path fill="#FB6BAB" d="M876 415c1.413.195 2.833.343 4.254.465l2.592.236q2.675.233 5.351.461A110.5 110.5 0 0 1 905 419l3.082.746 2.73.692 3.036.765L917 422l6.75 1.688L929 425v2l10 1v2l8 1v2h2q.039 2.469.063 4.938l.035 2.777C949 443 949 443 948 444a94 94 0 0 0-.375 4.125c-.434 4.421-1.817 7.808-3.625 11.875-.405 2.322-.76 4.655-1 7h-2l.125 3.563c.015 4.161-.813 7.502-2.125 11.437h-2v5h-2v4h-2v6h-2v5h-2v4h-2v4h-2v5h-2v4h-2v3h-2v4h-2v3h-2v3h-2v3h-2v5h-2v3h-2c-.095.543-.19 1.085-.29 1.645-.914 3.03-2.394 5.37-4.085 8.043l-1.836 2.949C899 558 899 558 896 559v3h-2v3h-2v3h-2v2h-2v3h-2v3l-4 1v3h-2v2h-2v3h-2v2c-1.875 2.125-1.875 2.125-4 4h-2l-.75 2.438C868 596 868 596 865.875 596.813L864 597v3h-2v2l-4 1v2l-4 1v3h-2v2l-4 1v2l-4 1v2l-1.875.25c-2.276.524-2.276.524-3.008 2.555C835.38 627.15 826.157 632.428 819 636h-2v2l-4 1v2l-4 1v2l-6 1v2l-4 1v2l-4 1v2l-6 1v2l-6 1v2h-4v2l-3.578 1.68-4.672 2.195-2.355 1.105-2.286 1.075-2.094.984a70 70 0 0 0-4.022 2.083C758 671 758 671 754 671v2a1382 1382 0 0 1-9.187 3.5l-2.62 1.012-2.548.957-2.333.888c-2.531.704-4.698.756-7.312.643v2l-8 1v2l-10 1v2l-12 1v2l-2.809.402-3.629.535-3.62.528c-2.822.225-2.822.225-3.942 1.535-7.02 1.036-13.913 1.108-21 1v2c-7.868.759-15.644 1.15-23.547 1.133l-3.196.003q-3.323 0-6.646-.006c-3.339-.005-6.678 0-10.017.007-24.645.008-24.645.008-34.594-1.137l-1-1a65 65 0 0 0-4-.5l-2.437-.25L577 695q-2.5-.245-5-.5l-2.25-.219C568 694 568 694 567 693a178 178 0 0 0-6-1c-5.889-.889-5.889-.889-7-2a104 104 0 0 0-4.562-1.062l-2.504-.536L545 688v-2h-2v-4h2v-2l4-1v-2l4-1v-2h2l2-4h2v-2h2v-3l4-1v-2h2v-3l1.875-.187L571 658a550 550 0 0 0 2-5 84 84 0 0 1 3.5-4.812l1.844-2.395L580 644h2l.813-1.734c1.228-2.345 2.612-4.39 4.187-6.516l1.563-2.14L590 632h2v-3h2v-2h2v-3h2v-3h2v-3h2v-3h2l.875-2.25A82 82 0 0 1 608 606h2v-3h2l.875-2.25A82 82 0 0 1 616 594h2v-3h2v-3h2l.438-1.812c.45-1.75.99-3.475 1.562-5.188h2v-3h2v-5h2v-3h2v-5h2v-4h2v-4h2v-4h2l.188-2.812c.775-5.484 3.43-10.249 5.812-15.188 2.528-5.348 4.585-10.601 6.207-16.293 1.45-4.95 3.14-9.822 4.793-14.707h2l-.062-2.937C659 498 659 498 660 497q.553-3.492 1-7h2v-7h2v-8h2v-8h2v-3q1.934-1.007 3.875-2l2.18-1.125C677 460 677 460 679 460v-2q1.934-1.007 3.875-2l2.18-1.125C687 454 687 454 689 454v-2l6-1v-2l6-1v-2l2.195-.77c4.202-1.495 8.263-2.954 12.242-4.98C718 439 718 439 722 439v-2l8-1v-2l8-1v-2a1371 1371 0 0 1 6.75-2l3.797-1.125C752 427 752 427 756 427v-2q2.686-.692 5.375-1.375l3.023-.773c3.656-.865 7.32-1.61 11.005-2.334 2.48-.495 4.95-1.018 7.421-1.553 9.2-1.959 18.093-3.436 27.5-3.79 2.595.126 2.595.126 3.676-1.175 49.042-5.48 49.042-5.48 62 1"/><path fill="#F13D89" d="M228.523 187.39c3.331.82 6.684 1.522 10.04 2.235 1.218.26 2.436.52 3.69.79L245 191v2l10 1v2l10 1v2l3.5.313c4.512.547 8.306 1.964 12.5 3.687v2l8 1v2l2.563.313c3.851.77 6.878 2.05 10.437 3.687v2l6 1v2l6 1v2l2.75.875c2.572.89 4.863 1.84 7.25 3.125v2l6 1v2l6 1v2l1.875.25c2.125.75 2.125.75 3.375 2.563C342 237 342 237 342 241h-2v6h-2v6h-2v7h-2v9h-2v11h-2c.03 1.95.03 1.95.063 3.938A59 59 0 0 1 330 288l-1 1c-.235 2.35-.414 4.706-.562 7.063l-.254 3.91L328 303h-2l.035 3.465q.015 2.236.027 4.473l.026 2.287A183 183 0 0 1 326 319l-1 1a158 158 0 0 0-.281 6.625l-.056 2.006A1777 1777 0 0 0 324.5 335q-.101 4.188-.219 8.375l-.092 3.773C324 350 324 350 323 351c-.16 2.737-.26 5.452-.316 8.191l-.063 2.485q-.097 3.944-.183 7.887l-.131 5.333q-.161 6.552-.307 13.104h2v18h2v4h-2v3h-6v-2l-6-1v-2l-6-1v-2l-5-1v-2l-8-1v-2l-8-1v-2l-3.937-.312c-4.965-.536-9.405-1.937-14.063-3.688v-2l-1.977-.148c-4.997-.428-9.294-1.115-14.023-2.852-5.614-1.646-11.192-3.215-17-4v-2c-1.763.03-1.763.03-3.562.063-3.89 0-7.605-.359-11.438-1.063l-1-1a93 93 0 0 0-4.91-.535l-2.998-.264-3.155-.264-3.166-.275q-3.885-.337-7.771-.662v-2h-4c-1.846-3.977-2.33-7.387-2.562-11.75.127-3.944.127-3.944-1.438-7.25-.21-2.309-.368-4.623-.5-6.937-.106-4.696-.106-4.696-1.5-9.063a277 277 0 0 1-.5-8.312q-.104-2.277-.219-4.551l-.092-2.04c-.152-2.158-.152-2.158-.698-4.478-.55-2.936-.62-5.668-.624-8.654l-.004-3.451.012-3.577-.012-3.587.004-3.448.004-3.14c.114-2.45.507-4.41 1.129-6.762q.195-2.345.281-4.695l.114-2.668.21-5.547.114-2.66.092-2.43c.189-2 .189-2 1.189-4 .23-2.371.411-4.747.563-7.125l.253-3.883L188 252h2v-11h2v-9h2l-.187-3.5c0-3.8.848-6.702 2.332-10.227 1.037-2.757 1.686-5.53 2.355-8.398 1.036-4.346 2.463-7.894 4.5-11.875l.5-3.562c.52-3.58 1.375-5.548 3.5-8.438 5.772-2.886 15.4-.123 21.523 1.39"/><path fill="#FB6AAA" d="m794 186 1 4h2v6h2v6h2c1.591 4.177 2.213 7.532 2 12h2c1.591 4.873 2.212 8.808 2 14h2v10h2l.184 2.152.254 2.786c.08.916.162 1.833.246 2.777.076 2.247.076 2.247 1.316 3.285.324 3.1.513 6.202.719 9.313-.013 2.603-.013 2.603 1.281 3.687a95 95 0 0 1 .281 5.094l.114 3.12.21 6.571.114 3.121.092 2.885c-.052 2.183-.052 2.183 1.189 3.209.1 2.28.13 4.562.133 6.844l.003 2.073q0 2.175-.006 4.348c-.005 2.226 0 4.45.007 6.676q0 2.108-.004 4.215l-.004 3.9C817 317 817 317 816 318a168 168 0 0 0-.281 6.844l-.056 2.073q-.087 3.292-.163 6.583-.101 4.328-.219 8.656l-.092 3.9C815 349 815 349 814 350a168 168 0 0 0-.562 6.563l-.254 3.628L813 363h-2v9h-2v3c-4.762 2.352-9.542 2.614-14.75 3.063q-2.586.23-5.172.472l-2.3.2c-1.8.088-1.8.088-2.778 1.265-3.304.449-6.606.82-9.922 1.162-4.03.456-7.36 1.263-11.078 2.838a97 97 0 0 1-7 0v2l-1.977.367c-3.893.747-7.632 1.503-11.398 2.758C740 390 740 390 736 390v2l-10 1v2l-8 1v2l-8 1v2l-7 1v2l-1.977.77c-3.892 1.532-7.68 3.052-11.398 4.98C687 411 687 411 683 411v2h-4v-2h-2c-.098-6.152-.098-6.152 0-8l1-1c.125-2.342.186-4.655.205-6.998l.03-2.217q.047-3.645.081-7.289l.063-5.04q.083-6.645.153-13.292.077-6.776.161-13.553.162-13.305.307-26.611h-2v-18h-2l-.184-2.59-.254-3.348c-.08-1.102-.162-2.204-.246-3.34-.02-2.633-.02-2.633-1.316-3.722-.072-2.02-.084-4.042-.062-6.062l.027-3.348L673 284h-2l-.184-2.371-.254-3.067c-.08-1.009-.162-2.018-.246-3.058-.048-2.44-.048-2.44-1.316-3.504l-1-7-1-1c-.141-2.67-.042-5.324 0-8h-2c-1.591-4.873-2.212-8.808-2-14h-2v-7h2v-2l4-1v-2q1.934-1.007 3.875-2l2.18-1.125C675 226 675 226 677 226v-2l6-1v-2q2.916-1.46 5.836-2.91c1.82-.917 3.62-1.874 5.414-2.84C697 214 697 214 701 214v-2l6-1v-2c15.35-7 15.35-7 21-7v-2a1371 1371 0 0 1 6.75-2l3.797-1.125C742 196 742 196 746 196v-2l12-1v-2l1.73-.332c3.816-.746 7.606-1.497 11.372-2.469 7.776-1.996 14.882-2.553 22.898-2.199"/><path fill="#FEF5F9" d="M505 67v2l4 1v2l4 1v2l4 2v2h2v2l4 1v2h2v3l4 1v2l4 2v2h2v2h2c2.125 1.875 2.125 1.875 4 4v2h2c4 4.47 4 4.47 4 7h2v2h2v3h2v2h2v3l4 1v3h2v3h2c4 5.412 4 5.412 4 8h2l1.375 2.938c1.283 3.133 1.283 3.133 3.625 4.062v3h2v3h2v3h2c1.46 2.647 2 3.894 2 7h2v4h2v3h2v3h2v4h2v3h2v5h2v3h2c1.257 2.906 2 4.796 2 8h2v4h2v5h2v4h2v5h2v4h2c1.423 3.823 2.24 6.913 2 11h2v6h2c1.802 3.83 2.196 6.781 2 11h2v7h2l.438 3.438c.174 3.37.174 3.37 1.562 4.562.04 2 .043 4 0 6h2l.438 3.438c.174 3.37.174 3.37 1.562 4.562.283 1.398.513 2.807.719 4.219l.386 2.574.79 5.414.386 2.574.346 2.377c.198 1.852.198 1.852 1.373 2.842.208 1.474.367 2.955.5 4.438.291 3.407.291 3.407 1.5 6.562a231 231 0 0 1 1 7.688l.25 2.048c1.48 12.733 1.919 25.468 1.953 38.276l.009 2.226q.022 5.845.028 11.69.007 4.725.041 9.45c.372 52.315.372 52.315-4.281 61.622-.203 1.83-.365 3.664-.5 5.5-.389 5.278-.389 5.278-1.5 7.5a132 132 0 0 0-.375 4.625c-.38 4.2-1.268 7.629-2.863 11.512-2.255 5.514-3.144 10.991-3.762 16.863h-2l.188 2.563c-.221 4.045-1.52 6.768-3.188 10.437-.691 2.779-.691 2.779-1 5h-2l.188 2.563c-.221 4.044-1.496 6.782-3.188 10.437-.373 1.323-.73 2.652-1 4h-2l.125 2.125c-.142 3.259-.992 5.831-2.125 8.875h-2l-.437 2.25c-.465 2.27-.982 4.508-1.563 6.75h-2v4h-2v5h-2v3h-2v4h-2v4h-2v4h-2v4h-2v3h-2v3h-2v3h-2v5h-2l-2 6h-2v3h-2v3h-2v3h-2l-.362 1.79c-.658 2.28-1.458 3.657-2.853 5.558l-1.33 1.834-1.393 1.88-2.714 3.723L561 609l-2 3h-2v2h-2l-2 4h-2v3h-2v3h-2v2h-2l-2 4h-2v2h-2l-2 4h-2v2h-2v3l-4 1v2h-2v3l-4 1v2l-4 1v2l-1.875.188L515 654l-1 2.5-1 2.5c-2.125.813-2.125.813-4 1v2h-2v2c-2.986 1.493-5.709 1.118-9 1l-2-1v-2l-1.875-.937L490 659v-2l-4-1v-2h-2c-2.125-1.875-2.125-1.875-4-4v-2l-4-1v-2l-4-1v-2h-2c-2.125-1.875-2.125-1.875-4-4v-2h-2v-3l-4-2v-2h-2v-2l-3-1c-1.687-1.375-1.687-1.375-3-3v-3h-2v-2h-2v-3l-1.766-.691c-2.832-1.66-4.13-3.55-5.984-6.246l-1.86-2.653C437 603 437 603 437 600h-2v-3h-2v-2h-2v-3h-2v-4h-2l1-3c2 1 2 1 3.438 4.438 1.264 3.753 1.264 3.753 4.562 5.562v3h2l.777 1.617c3.472 6.756 8.048 11.876 13.223 17.383q1.76 1.99 3.5 4c9.64 11.036 19.304 21.697 30.828 30.813 3.365 2.754 6.445 5.763 9.504 8.851 2.15 1.58 2.15 1.58 5.027 1.371 3.95-1.301 6.56-3.471 9.579-6.222l1.82-1.614A655 655 0 0 0 518 649l1.916-1.729c10.27-9.279 20.525-18.863 28.709-30.083L551 614h2l.738-1.648c1.555-2.898 3.449-5.367 5.45-7.977 6.592-8.612 12.645-17.503 18.312-26.75l1.724-2.81q1.668-2.721 3.33-5.448a708 708 0 0 1 3.454-5.586c16.678-27.393 31.816-61.925 37.324-93.648.554-2.599 1.249-4.912 2.121-7.41 1.623-4.745 2.622-9.477 3.485-14.41l.499-2.81c1.427-8.267 2.618-16.566 3.75-24.878l.506-3.667c2.074-15.753 2.47-31.337 2.437-47.202-.005-3.053 0-6.107.007-9.16.008-17.329-.532-34.376-3.074-51.533l-.514-3.627c-2.15-15.201-2.15-15.201-5.424-30.186q-.533-2.06-1.062-4.121l-.54-2.078c-.506-1.983-.988-3.97-1.46-5.961C618.096 238.1 608.952 214.21 598 191l-.983-2.087C584.971 163.573 569.957 139.576 552 118l-1.504-1.812C544.62 109.146 538.618 102.361 532 96a624 624 0 0 1-7.508-7.578c-10.404-12.144-10.404-12.144-23.992-18.047-3.457.53-3.457.53-6.5 1.625v-3c3.634-2.326 6.77-2.163 11-2M930 427l9 1v2l8 1v2h2q.039 2.469.063 4.938l.035 2.777C949 443 949 443 948 444a94 94 0 0 0-.375 4.125c-.434 4.421-1.817 7.808-3.625 11.875-.405 2.322-.76 4.655-1 7h-2l.125 3.563c.015 4.161-.813 7.502-2.125 11.437h-2v5h-2v4h-2v6h-2v5h-2v4h-2v4h-2v5h-2v4h-2v3h-2v4h-2v3h-2v3h-2v3h-2v5h-2v3h-2c-.095.543-.19 1.085-.29 1.645-.914 3.03-2.394 5.37-4.085 8.043l-1.836 2.949C899 558 899 558 896 559v3h-2v3h-2v3h-2v2h-2v3h-2v3l-4 1v3h-2v2h-2v3h-2v2c-1.875 2.125-1.875 2.125-4 4h-2l-.75 2.438C868 596 868 596 865.875 596.813L864 597v3h-2v2l-4 1v2l-4 1v3h-2v2l-4 1v2l-4 1v2l-1.875.25c-2.276.524-2.276.524-3.008 2.555C835.38 627.15 826.157 632.428 819 636h-2v2l-4 1v2l-4 1v2l-6 1v2l-4 1v2l-4 1v2l-6 1v2l-6 1v2h-4v2l-3.578 1.68-4.672 2.195-2.355 1.105-2.286 1.075-2.094.984a70 70 0 0 0-4.022 2.083C758 671 758 671 754 671v2a1382 1382 0 0 1-9.187 3.5l-2.62 1.012-2.548.957-2.333.888c-2.531.704-4.698.756-7.312.643v2l-8 1v2l-10 1v2l-12 1v2l-2.809.402-3.629.535-3.62.528c-2.822.225-2.822.225-3.942 1.535-7.02 1.036-13.913 1.108-21 1v2c-7.868.759-15.644 1.15-23.547 1.133l-3.196.003q-3.323 0-6.646-.006c-3.339-.005-6.678 0-10.017.007-24.645.008-24.645.008-34.594-1.137l-1-1a65 65 0 0 0-4-.5l-2.437-.25L577 695q-2.5-.245-5-.5l-2.25-.219C568 694 568 694 567 693a178 178 0 0 0-6-1c-5.889-.889-5.889-.889-7-2a104 104 0 0 0-4.562-1.062l-2.504-.536L545 688v-2h-2v-4h2v-2l4-1v-2l4-1v-2h2l2-4h2v-2h2v-3l4-1v-2h2v-3l1.875-.187L571 658a550 550 0 0 0 2-5 84 84 0 0 1 3.5-4.812l1.844-2.395L580 644h2l.813-1.734c1.228-2.345 2.612-4.39 4.187-6.516l1.563-2.14L590 632h2v-3h2v-2h2v-3h2v-3h2v-3h2v-3h2l.875-2.25A82 82 0 0 1 608 606h2v-3h2l.875-2.25A82 82 0 0 1 616 594h2v-3h2v-3h2l.438-1.812c.45-1.75.99-3.475 1.562-5.188h2v-3h2v-5h2v-3h2v-5h2v-4h2v-4h2v-4h2l.188-2.812c.775-5.484 3.43-10.249 5.812-15.188 2.528-5.348 4.585-10.601 6.207-16.293 1.45-4.95 3.14-9.822 4.793-14.707h2l-.062-2.937C659 498 659 498 660 497q.553-3.492 1-7h2v-7h2v-8h2v-8h2v-3q1.932-1.044 3.875-2.062l2.18-1.16L677 460l2 1-1.68 1.172-2.195 1.578-2.18 1.547c-4.08 3.573-4.258 7.499-4.945 12.703l-1 1-.437 3.188C666 486 666 486 665 488.875c-1.283 4.009-1.647 7.946-2 12.125h-2v5h-2v6h-2v6h-2v5h-2v6h-2l-.437 2.25c-.465 2.27-.982 4.508-1.563 6.75h-2v5h-2v5h-2v4h-2v4h-2v4h-2v4h-2v4h-2v4h-2v4h-2v4h-2v3h-2v3h-2v4h-2v3h-2v3h-2v4h-2l-.875 2.25A82 82 0 0 1 611 609h-2v3h-2l-.687 2.043c-1.677 3.776-3.904 6.928-6.313 10.27l-1.367 1.955c-1.157 1.617-2.39 3.18-3.633 4.732h-2l-2 5h-2l-.187 2.25c-1.058 3.58-2.882 4.551-5.813 6.75l-1 3h-3l-.312 1.813c-.785 2.496-1.787 3.444-3.688 5.187l-1 2h-2v3h-2v2l-4 1v3l-4 1v2h-2v3h-2v2l-1.875.25c-2.31.563-2.31.563-3.375 2.813L552 679h-2v2l-4 1 1 3a78 78 0 0 0 8 2.5l2.45.652c8.105 2.096 16.266 3.653 24.55 4.848l3.208.515c11.467 1.671 22.84 1.824 34.415 1.8 3.278-.002 6.555.021 9.832.046 19.765.06 39.198-2.026 58.607-5.736l3.423-.647c8.052-1.575 15.752-3.555 23.49-6.28 2.26-.78 4.534-1.5 6.814-2.218 11-3.499 21.633-7.58 32.217-12.192 4.66-2.01 8.88-3.82 13.994-4.288v-2l2.938-1.434C797.833 647.35 822.893 631.344 845 611q1.932-1.695 3.875-3.375c13.625-11.925 25.7-24.335 36.69-38.744a875 875 0 0 1 2.956-3.852c6.731-8.722 12.94-17.491 18.479-27.029l1.95-3.32A701 701 0 0 0 915 524l1.098-1.952c10.9-19.47 19.219-40.705 24.25-62.466.609-2.41 1.391-4.638 2.277-6.957 2.114-5.989 2.115-12.333 2.375-18.625-3.337-1.38-6.435-2.389-10-3v-2l-5-1z"/><path fill="#FEF3F7" d="m62 431-6 2q.21 2.469.438 4.938c.08.916.162 1.833.246 2.777.076 2.247.076 2.247 1.316 3.285.321 2.318.512 4.638.719 6.969.072 2.023.072 2.023 1.281 3.031.326 2.016.61 4.038.875 6.063.576 3.963 1.185 7.595 2.688 11.312C65 475 65 475 65.375 478.375c.717 4.16 2.266 7.095 4.219 10.8 3.274 6.576 6.17 13.561 7.406 20.825h2l1.313 3.75C81.498 516.952 82.9 519.3 85 522v3h2l1.207 3.043c1.74 4.061 4.019 7.614 6.48 11.27C99 545.738 99 545.738 99 548h2v3h2v3h2l1.605 3.004c2.482 4.338 5.52 8.098 8.707 11.933l1.766 2.146c3.89 4.715 7.817 9.387 11.922 13.917l2.652 2.965 2.91 3.222 1.356 1.515c2.335 2.562 4.723 4.874 7.422 7.036L146 602v2l1.621.64c3.284 1.877 5.758 4.484 8.441 7.11 12.629 12.026 27.26 21.895 41.938 31.25l2.136 1.363c10.329 6.547 20.8 12.434 31.864 17.637l2.516 1.2c12.907 6.132 25.893 11.39 39.484 15.8l2.163.714c13.868 4.566 27.922 7.966 42.212 10.911l2.967.625c16.114 3.237 32.017 4.078 48.425 4.01 3.097-.01 6.194 0 9.292.013 16.672.013 33.11-1.039 49.503-4.21l2.783-.52c5.598-1.067 11.096-2.303 16.534-4.027 2.43-.591 4.628-.604 7.121-.516-1.417-4.66-3.736-6.896-7.375-10.062-5.13-4.533-10.01-9.243-14.79-14.141-2.65-2.748-2.65-2.748-5.835-4.797a2101 2101 0 0 1-3-5 124 124 0 0 0-3.875-4.25c-22.481-24.624-40.813-53.885-54.879-84.004a320 320 0 0 0-4.715-9.613c-2.745-5.462-5.133-11.049-7.469-16.696l-1.319-3.186c-5.65-13.764-10.282-27.567-14.117-41.937a549 549 0 0 0-2.013-7.205l-.69-2.433q-.652-2.29-1.312-4.576A85 85 0 0 1 331 465l-2.196-.837c-2.674-1.11-5.138-2.361-7.667-3.765l-2.686-1.484-2.764-1.539c-.93-.516-1.862-1.031-2.822-1.562A3507 3507 0 0 1 306 452c3.75-1.125 3.75-1.125 6 0v2l6 1v2l6 1v2l2.875.938C330 462 330 462 332 463v3h2v3h2v9h2v8h2l.313 3.063c.525 3.958.525 3.958 2.25 7.437 1.552 3.78 1.685 6.457 1.437 10.5h2v6h2c1.316 3.62 2 6.096 2 10h2v5h2v6h2c1.498 3.371 2 5.204 2 9h2c.315.846.63 1.691.953 2.563 2.864 7.638 2.864 7.638 6.36 15C369 564 369 564 369 568h2v4h2v4h2v3h2v5h2v3h2v3h2c1.46 2.647 2 3.894 2 7h2v3h2c4 5.294 4 5.294 4 9h2v2h2v3h2v3h2v3h2v3h2v3h2v2h2l2 5h2v3h2v2h2v3h2v2h2c4 4.47 4 4.47 4 7h2l.813 2.438L429 655l3 1c1.605 1.559 1.605 1.559 3.188 3.438l1.605 1.87C438 663 438 663 438 665h2v2l4 1v3h2v2l4 1v2l1.875.188C454 677 454 677 455.25 679.563L456 682h2v5c-7.318 4.008-15.74 5.477-24 5v2l-1.82.168q-4.059.379-8.118.77l-2.865.263-2.724.264-2.524.238c-1.95.1-1.95.1-2.949 1.297-4.834.574-9.705.824-14.562 1.125l-2.215.14C376.75 699.453 356.332 699.839 337 697l-1-1c-1.4-.214-2.809-.37-4.219-.5l-2.574-.25-2.707-.25q-2.64-.245-5.281-.5l-2.377-.219C317 694 317 694 316 693c-2.18-.397-4.37-.743-6.562-1.062l-3.63-.536L303 691v-2l-2.414-.148-3.211-.227c-1.044-.07-2.088-.14-3.164-.21-3.311-.428-6.072-1.296-9.211-2.415a916 916 0 0 0-6.75-1.875c-5.02-1.423-9.81-3.034-14.613-5.059-3.237-1.309-6.524-2.429-9.824-3.566-5.011-1.764-9.285-3.765-13.813-6.5-1.981-.72-3.977-1.408-6-2v-2l-6-1v-2l-2.187-.375c-2.77-.615-5.21-1.51-7.813-2.625v-2l-2.187-.875L208 653v-2l-2.75-.875c-2.572-.89-4.863-1.84-7.25-3.125v-2l-2.187-.875L188 641v-2l-4-1v-2l-4-1v-2l-4-1v-2l-4-1v-2l-3-1v-2l-4-1v-2l-4-1v-2l-4-1v-2l-4-2v-2h-2v-2l-4-1v-2l-4-2v-2h-2v-2l-4-2v-2h-2v-2l-4-2v-2h-2v-2h-2v-2h-2c-2.125-1.812-2.125-1.812-4-4v-3h-2l-2-5h-2v-3h-2c-4-4.47-4-4.47-4-7h-2c-1.29-1.645-1.29-1.645-2.625-3.812l-1.352-2.145C102 556 102 556 102 553h-2v-3h-2v-3h-2v-3h-2v-3h-2v-3h-2v-3h-2v-4h-2v-3h-2c-1.765-3.088-2-4.233-2-8h-2v-3h-2q-.722-1.874-1.437-3.75l-.81-2.11c-.714-2.03-1.267-4.044-1.753-6.14h-2v-5h-2c-1.316-3.62-2-6.096-2-10h-2v-5h-2v-7h-2v-6h-2l-.621-3.027-.816-3.91-.81-3.903c-.425-3.006-.425-3.006-1.753-4.16a92 92 0 0 1-.062-5.062l.027-2.786L56 447h-2v-9h-2v-4h2l1-3c3.133-1.044 3.99-.934 7 0"/><path fill="#FEF2F8" d="m794 186 1 4h2v6h2v6h2c1.591 4.177 2.213 7.532 2 12h2c1.591 4.873 2.212 8.808 2 14h2v10h2l.184 2.152.254 2.786c.08.916.162 1.833.246 2.777.076 2.247.076 2.247 1.316 3.285.324 3.1.513 6.202.719 9.313-.013 2.603-.013 2.603 1.281 3.687a95 95 0 0 1 .281 5.094l.114 3.12.21 6.571.114 3.121.092 2.885c-.052 2.183-.052 2.183 1.189 3.209.1 2.28.13 4.562.133 6.844l.003 2.073q0 2.175-.006 4.348c-.005 2.226 0 4.45.007 6.676q0 2.108-.004 4.215l-.004 3.9C817 317 817 317 816 318a168 168 0 0 0-.281 6.844l-.056 2.073q-.087 3.292-.163 6.583-.101 4.328-.219 8.656l-.092 3.9C815 349 815 349 814 350a168 168 0 0 0-.562 6.563l-.254 3.628L813 363h-2v9h-2v3c-4.762 2.352-9.542 2.614-14.75 3.063q-2.586.23-5.172.472l-2.3.2c-1.8.088-1.8.088-2.778 1.265-3.304.449-6.606.82-9.922 1.162-4.03.456-7.36 1.263-11.078 2.838a97 97 0 0 1-7 0v2l-1.977.367c-3.893.747-7.632 1.503-11.398 2.758C740 390 740 390 736 390v2l-10 1v2l-8 1v2l-8 1v2l-7 1v2l-1.977.77c-3.892 1.532-7.68 3.052-11.398 4.98C687 411 687 411 683 411v2h-4v-2h-2c-.098-6.152-.098-6.152 0-8l1-1c.125-2.342.186-4.655.205-6.998l.03-2.217q.047-3.645.081-7.289l.063-5.04q.083-6.645.153-13.292.077-6.776.161-13.553.162-13.305.307-26.611h-2v-18h-2l-.184-2.59-.254-3.348c-.08-1.102-.162-2.204-.246-3.34-.02-2.633-.02-2.633-1.316-3.722-.072-2.02-.084-4.042-.062-6.062l.027-3.348L673 284h-2l-.184-2.371-.254-3.067c-.08-1.009-.162-2.018-.246-3.058-.048-2.44-.048-2.44-1.316-3.504l-1-7-1-1c-.141-2.67-.042-5.324 0-8h-2c-1.591-4.873-2.212-8.808-2-14h-2v-7h2v-2l4-1-1 2h-2c.297 4.907.683 9.546 2.375 14.188 2.33 6.41 3.37 13.125 4.625 19.812q.556 2.938 1.125 5.875l.445 2.367c.273 1.774.273 1.774 1.43 2.758.208 1.641.368 3.289.5 4.938.252 3.668.252 3.668 1.5 7.062.316 3.373.511 6.747.719 10.129-.036 2.766-.036 2.766 1.281 3.871.21 2.142.368 4.29.5 6.438.141 4.44.141 4.44 1.5 8.562.142 1.923.226 3.85.281 5.777l.114 3.494.105 3.666q.103 3.577.219 7.153l.092 3.214c.084 2.794.084 2.794 1.189 5.696.094 1.91.13 3.822.133 5.734l.004 3.43-.012 3.586.012 3.54-.004 3.444-.004 3.132c-.141 3.432-.637 6.736-1.129 10.134a238 238 0 0 0-.316 6.809l-.127 3.76-.12 3.868-.13 3.952q-.159 4.805-.307 9.611l3.418-1.687C707.563 396.544 733.013 387.736 759 381l3.164-.832c7.275-1.795 14.64-3.046 22.024-4.293l3.06-.518A245 245 0 0 1 806 373c9.184-28.863 7.879-62.56 6.563-92.5l-.12-2.774-.127-2.57-.11-2.287c-.107-1.96-.107-1.96-1.206-3.869a76 76 0 0 1-.395-4.121C808.567 238.87 801.445 214.592 793 190l-1-3-1.977.438c-4.75 1.008-9.137 1.82-14.023 1.562v2l-13 1v2l-17 2v-2l12-1v-2l1.73-.332c3.816-.746 7.606-1.497 11.372-2.469 7.776-1.996 14.882-2.553 22.898-2.199"/><path fill="#FDE1ED" d="m488 75 2 1c-1.375 1.5-1.375 1.5-3 3h-2v3l-4 1v2a181 181 0 0 1-4 4l-1 2c-2.562.625-2.562.625-5 1l-1 5-5 1-.187 1.688c-1.161 3.303-3.215 5.03-5.813 7.312h-2v2h-2l-1 5h-3c-1.206 2.332-2.165 4.496-3 7h-2v3l-1.86.742c-2.566 1.509-3.179 2.7-4.39 5.383l-1.016 2.195L438 134h-2v2h-2v3h-2v3h-2v3h-2v3h-2v3h-2v3h-2v3h-2v3h-2l-.437 1.813c-.45 1.749-.992 3.474-1.563 5.187h-2v4h-2v3h-2v4h-2l-.312 1.625c-1.185 4.092-3.354 7.732-5.313 11.5-1.124 2.35-1.887 4.337-2.375 6.875h-2l-.402 2.168c-.586 2.774-1.33 5.435-2.16 8.144l-.817 2.676L394 213h-2l-.148 2.012c-.743 8.77-.743 8.77-2.852 12.988h-2v6h-2v6h-2v6h-2l.063 2.438C381 251 381 251 380 252a86 86 0 0 0-.562 4.563l-.254 2.503L379 261h-2v8h-2v9h-2v9h-2v12h-2l.035 2.371.027 3.067.036 3.058C369 310 369 310 368 311c-.21 2.504-.376 4.991-.5 7.5-.365 7.365-.365 7.365-1.5 8.5a158 158 0 0 0-.281 6.625l-.056 2.006A1777 1777 0 0 0 365.5 342q-.101 4.188-.219 8.375l-.092 3.773C365 357 365 357 364 358c-.1 2.31-.13 4.625-.125 6.938l-.008 3.84c-.092 3.114-.092 3.114 1.133 5.222.144 2.455.234 4.887.281 7.344l.056 2.196c.079 3.107.146 6.213.215 9.32q.08 3.397.167 6.796l.04 2.137c.047 3.729.047 3.729 1.241 7.207.317 3.634.512 7.268.719 10.91-.063 2.96-.063 2.96 1.281 4.09.324 2.84.513 5.68.719 8.531.015 2.41.015 2.41 1.281 3.469.141 2.67.042 5.324 0 8h2v11h2l.184 2.152.253 2.786.247 2.777c.076 2.247.076 2.247 1.316 3.285.04 2 .043 4 0 6h2v8h2v6h2v6h2l.367 2.371.508 3.067.492 3.058L387 503l2 1v4h2l.84 2.977c3.774 13.16 8.371 25.037 15.055 37.003 2.343 4.282 4.448 8.686 6.597 13.067 2.363 5.3 2.363 5.3 6.508 8.953.625 3.063.625 3.063 1 6h-2v-3h-2v-3h-2v-3h-2v-3h-2v-5h-2v-3h-2v-4h-2c-1.765-3.088-2-4.233-2-8h-2v-4h-2c-1.765-3.088-2-4.233-2-8h-2v-5h-2c-1.604-3.508-2.22-6.144-2-10h-2c-1.423-3.823-2.24-6.913-2-11h-2l-.55-1.906c-1.231-4.19-2.49-8.297-4.137-12.344-1.248-3.564-1.593-6.02-1.313-9.75h-2c-.182-.8-.364-1.598-.55-2.422-1.294-5.65-2.62-11.28-4.075-16.89-1.91-7.617-2.538-14.842-2.375-22.688h-2v-11h-2v-15h-2l-.076-1.912q-.175-4.263-.361-8.526l-.12-3.01-.127-2.86-.11-2.65c.012-2.035.012-2.035-1.206-3.042a76 76 0 0 1-.114-4.703v-3.034l.016-3.298.005-3.359c.005-3.556.018-7.112.03-10.668q.009-3.608.014-7.213.017-8.863.049-17.725h2v-22h2l-.035-3.246q-.015-2.095-.027-4.192l-.026-2.142c-.009-1.807.036-3.614.088-5.42l1-1c.234-1.849.413-3.705.563-5.562l.253-3.067L368 293h2l-.105-1.625c-.383-11.088 2.287-22.06 5.355-32.652.864-3.137 1.556-6.295 2.25-9.473 1.065-4.71 2.504-8.842 4.5-13.25.817-2.528 1.565-5.07 2.305-7.621.824-2.82 1.744-5.6 2.695-8.379h2v-5h2l-.125-2.187c.134-3.02.877-5.082 2.125-7.813h2v-5h2v-4h2v-5h2l.402-1.734c.592-2.243 1.33-4.352 2.16-6.516l.817-2.14L405 179h2v-3h2l.313-1.562c.93-3.298 2.301-6.304 3.687-9.438h2v-4h2v-3h2v-3h2v-3h2v-3h2v-3h2v-3h2v-3h2v-3h2v-3h2v-2h2l.25-1.625c1.026-3.248 2.716-5.663 4.75-8.375h2l2-5h2v-3a141 141 0 0 1 5-5l1.688-2.312L456 105h2v-2c1.875-2.125 1.875-2.125 4-4h2v-2h2v-3l4-1v-2h2v-3l4-1v-2l1.875-.187L480 84l1-2.5 1-2.5c2.125-.812 2.125-.812 4-1v-2z"/><path fill="#FEFBFC" d="M228.523 187.39c3.331.82 6.684 1.522 10.04 2.235 1.218.26 2.436.52 3.69.79L245 191v2l-19-2v-2h-19v6h-2v6h-2l.125 2.063c-.15 3.536-1.069 6.57-2.125 9.937h-2l-.113 2.965c-.335 6.674-.73 12.752-3.196 19.031-.756 2.192-1.03 4.2-1.254 6.504L194 245l-2 1c-.43 2.554-.43 2.554-.562 5.5-.342 5.404-.342 5.404-1.438 6.5-1.054 9.728-1.15 19.526-1.133 29.3l-.003 3.89q-.002 4.02.006 8.04.006 5.153-.004 10.305-.004 4.946.001 9.89l-.006 3.738.01 3.432.002 3.026c-.03 2.396-.03 2.396 1.127 4.379.2 1.9.345 3.807.465 5.715l.236 3.521q.233 3.65.461 7.297c.492 7.279 1.343 14.324 2.838 21.467 5.23 1.743 10.146 2.382 15.645 2.754C212 375 212 375 214 376c1.851.252 3.706.476 5.563.688C247.257 380.592 275.505 389.559 301 401c-3.097.878-4.906.994-8 0v-2l-8-1v-2l-3.937-.312c-4.965-.536-9.405-1.937-14.063-3.688v-2l-1.977-.148c-4.997-.428-9.294-1.115-14.023-2.852-5.614-1.646-11.192-3.215-17-4v-2c-1.763.03-1.763.03-3.562.063-3.89 0-7.605-.359-11.438-1.063l-1-1a93 93 0 0 0-4.91-.535l-2.998-.264-3.155-.264-3.166-.275q-3.885-.337-7.771-.662v-2h-4c-1.846-3.977-2.33-7.387-2.562-11.75.127-3.944.127-3.944-1.438-7.25-.21-2.309-.368-4.623-.5-6.937-.106-4.696-.106-4.696-1.5-9.063a277 277 0 0 1-.5-8.312q-.104-2.277-.219-4.551l-.092-2.04c-.152-2.158-.152-2.158-.698-4.478-.55-2.936-.62-5.668-.624-8.654l-.004-3.451.012-3.577-.012-3.587.004-3.448.004-3.14c.114-2.45.507-4.41 1.129-6.762q.195-2.345.281-4.695l.114-2.668.21-5.547.114-2.66.092-2.43c.189-2 .189-2 1.189-4 .23-2.371.411-4.747.563-7.125l.253-3.883L188 252h2v-11h2v-9h2l-.187-3.5c0-3.8.848-6.702 2.332-10.227 1.037-2.757 1.686-5.53 2.355-8.398 1.036-4.346 2.463-7.894 4.5-11.875l.5-3.562c.52-3.58 1.375-5.548 3.5-8.438 5.772-2.886 15.4-.123 21.523 1.39"/><path fill="#FEF1F6" d="M265 199c5.868.524 10.549 1.761 16 4v2l8 1v2l2.563.313c3.851.77 6.878 2.05 10.437 3.687v2l6 1v2l6 1v2l2.75.875c2.572.89 4.863 1.84 7.25 3.125v2l6 1v2l6 1v2l1.875.25c2.125.75 2.125.75 3.375 2.563C342 237 342 237 342 241h-2v6h-2v6h-2v7h-2v9h-2v11h-2l.063 3.938A59 59 0 0 1 330 288l-1 1c-.235 2.35-.414 4.706-.562 7.063l-.254 3.91L328 303h-2l.035 3.465q.015 2.236.027 4.473l.026 2.287A183 183 0 0 1 326 319l-1 1a158 158 0 0 0-.281 6.625l-.056 2.006A1777 1777 0 0 0 324.5 335q-.101 4.188-.219 8.375l-.092 3.773C324 350 324 350 323 351c-.16 2.737-.26 5.452-.316 8.191l-.063 2.485q-.097 3.944-.183 7.887l-.131 5.333q-.161 6.552-.307 13.104h2v18h2v4h-2v3h-6v-2l-6-1v-2l-6-1v-2l-5-1v-2c4.165.614 7.348 2.046 11.063 4 3.33 1.747 6.278 3.169 9.937 4l-.429-2.982c-1.709-12.871-1.878-25.64-1.832-38.611.01-3.571 0-7.142-.012-10.714-.013-19.276 1.237-38.299 4.023-57.38l.506-3.488c2.637-17.442 5.986-34.928 11.764-51.626 1.04-3.395 1.565-6.677 1.98-10.199l-2.086-.746c-3.395-1.461-6.433-3.335-9.539-5.316-4.483-2.866-4.483-2.866-9.375-4.938v-2l-2.488-.762c-4.048-1.427-7.836-3.192-11.7-5.05q-2.288-1.087-4.578-2.172L294 212c-9.473-4.508-19.205-8.26-29-12z"/><path fill="#FEDBEB" d="M876 415c1.413.195 2.833.343 4.254.465l2.592.236q2.675.233 5.351.461A110.5 110.5 0 0 1 905 419l3.082.746 2.73.692 3.036.765L917 422l6.75 1.688L929 425v2l-15-2v-2a384 384 0 0 0-12.75-1.937c-4.143-.582-8.226-1.23-12.312-2.125-13.112-2.672-26.683-2.093-39.994-2.068-3.436.005-6.872 0-10.307-.007-15.862-.226-15.862-.226-31.637 1.137l-1 1c-1.413.156-2.834.25-4.254.316l-2.588.127-2.72.12-2.733.13q-3.353.16-6.705.307v2c-4.763.953-9.167 1.083-14 1v2l-2.414.367c-5.396.854-10.42 1.825-15.586 3.633h-4v2l-9 1v2c-6.573 2.434-13.083 3.901-20 5v-2l8-1v-2l8-1v-2a1371 1371 0 0 1 6.75-2l3.797-1.125C752 427 752 427 756 427v-2q2.686-.692 5.375-1.375l3.023-.773c3.656-.865 7.32-1.61 11.005-2.334 2.48-.495 4.95-1.018 7.421-1.553 9.2-1.959 18.093-3.436 27.5-3.79 2.595.126 2.595.126 3.676-1.175 49.042-5.48 49.042-5.48 62 1"/><path fill="#FCD8E7" d="M187 275h1l.031 2.15q.147 10.022.308 20.042.084 5.153.158 10.304c.057 3.947.122 7.893.187 11.84l.05 3.747.06 3.458.048 3.055c.003 2.417.003 2.417 1.158 4.404.2 1.9.345 3.807.465 5.715l.236 3.521q.233 3.65.461 7.297c.492 7.279 1.343 14.324 2.838 21.467 5.23 1.743 10.146 2.382 15.645 2.754C212 375 212 375 214 376c1.851.252 3.706.476 5.563.688C247.257 380.592 275.505 389.559 301 401c-3.097.878-4.906.994-8 0v-2l-8-1v-2l-3.937-.312c-4.965-.536-9.405-1.937-14.063-3.688v-2l-1.977-.148c-4.997-.428-9.294-1.115-14.023-2.852-5.614-1.646-11.192-3.215-17-4v-2l-3.562.063c-3.89 0-7.605-.359-11.438-1.063l-1-1a93 93 0 0 0-4.91-.535l-2.998-.264-3.155-.264-3.166-.275q-3.885-.337-7.771-.662v-2h-4c-1.798-3.902-2.328-7.223-2.562-11.5-.243-4.481-.243-4.481-.965-8.898-.65-3.577-.539-7.108-.473-10.727.148-5.51.148-5.51-1-10.875a116 116 0 0 1-.114-5.665v-3.518l.016-3.797.005-3.889q.006-5.112.024-10.224.014-5.217.02-10.436.016-10.236.049-20.471"/><path fill="#FDE9F2" d="m488 75 2 1c-1.375 1.5-1.375 1.5-3 3h-2v3l-4 1v2a181 181 0 0 1-4 4l-1 2c-2.562.625-2.562.625-5 1l-1 5-5 1-.187 1.688c-1.161 3.303-3.215 5.03-5.813 7.312h-2v2h-2l-1 5h-3c-1.206 2.332-2.165 4.496-3 7h-2v3l-1.86.742c-2.566 1.509-3.179 2.7-4.39 5.383l-1.016 2.195L438 134h-2v2h-2v3h-2v3h-2v3h-2v3h-2v3h-2v3h-2v3h-2v3h-2l-.437 1.813c-.45 1.749-.992 3.474-1.563 5.187h-2v4h-2v3h-2v4h-2l-.312 1.625c-1.185 4.092-3.354 7.732-5.313 11.5-1.124 2.35-1.887 4.337-2.375 6.875h-2l-.402 2.168c-.586 2.774-1.33 5.435-2.16 8.144l-.817 2.676L394 213h-2l-.375 2.438L391 218l-2 1v-4h2l-.125-2.187c.134-3.02.877-5.082 2.125-7.813h2v-5h2v-4h2v-5h2l.402-1.734c.592-2.243 1.33-4.352 2.16-6.516l.817-2.14L405 179h2v-3h2l.313-1.562c.93-3.298 2.301-6.304 3.687-9.438h2v-4h2v-3h2v-3h2v-3h2v-3h2v-3h2v-3h2v-3h2v-3h2v-3h2v-2h2l.25-1.625c1.026-3.248 2.716-5.663 4.75-8.375h2l2-5h2v-3a141 141 0 0 1 5-5l1.688-2.312L456 105h2v-2c1.875-2.125 1.875-2.125 4-4h2v-2h2v-3l4-1v-2h2v-3l4-1v-2l1.875-.187L480 84l1-2.5 1-2.5c2.125-.812 2.125-.812 4-1v-2z"/><path fill="#FEFAFC" d="M155.462 412.87q3.154.005 6.31-.007C185.7 412.85 185.7 412.85 190 415a81 81 0 0 0 4.219.465l2.559.232 2.722.24q2.764.266 5.527.54l2.516.244c8.423.956 16.522 3.297 24.684 5.515 4.242 1.145 8.415 2.138 12.773 2.764v2l10 1v2l-14-2v-2l-2.75-.313c-3.306-.46-6.44-1.253-9.66-2.128-6.713-1.7-13.398-2.496-20.277-3.184q-3.476-.357-6.95-.727c-1.007-.1-2.015-.202-3.053-.307C196 419 196 419 195 418c-12-2.835-24.498-2.272-36.736-2.206-3.548.019-7.095.02-10.643.02l-6.762.018-3.216.003-2.956.02-2.605.011c-2.143.002-2.143.002-4.082 1.134-2.33.308-4.662.509-7.004.719-1.992.076-1.992.076-2.996 1.281-2.859.237-5.699.422-8.562.562l-2.444.131q-2.997.159-5.994.307v2l-1.693.244q-3.873.561-7.744 1.131l-2.663.383A206 206 0 0 0 72 427v-2c9.765-3.117 19.509-4.975 29.629-6.535 2.318-.226 2.318-.226 3.371-1.465a78 78 0 0 1 4.438-.5l2.71-.25 5.704-.5 2.71-.25 2.504-.219c1.937-.085 1.937-.085 2.934-1.281 9.775-1.09 19.637-1.16 29.462-1.13"/><path fill="#FEE8F2" d="m677 460 2 1-1.68 1.172-2.195 1.578-2.18 1.547c-4.08 3.573-4.258 7.499-4.945 12.703l-1 1-.437 3.188C666 486 666 486 665 488.875c-1.283 4.009-1.647 7.946-2 12.125h-2v5h-2v6h-2v6h-2v5h-2v6h-2l-.437 2.25c-.465 2.27-.982 4.508-1.563 6.75h-2v5h-2v5h-2v4h-2v4h-2v4h-2v4h-2v4h-2v4h-2v4h-2v4h-2l-1 3v-5h2v-5h2v-3h2v-5h2v-4h2v-4h2v-4h2l.188-2.812c.775-5.484 3.43-10.249 5.812-15.188 2.528-5.348 4.585-10.601 6.207-16.293 1.45-4.95 3.14-9.822 4.793-14.707h2l-.062-2.937C659 498 659 498 660 497q.553-3.492 1-7h2v-7h2v-8h2v-8h2v-3q1.932-1.044 3.875-2.062l2.18-1.16z"/><path fill="#FDE7F0" d="M320 337h1c.785 17.01 1.144 33.972 1 51h2v18h2v4h-2v3h-6v-2l-6-1v-2l-6-1v-2l-5-1v-2c4.165.614 7.348 2.046 11.063 4 3.33 1.747 6.278 3.169 9.937 4l-.433-2.931c-1.967-14.548-1.793-29.04-1.692-43.694q.016-3.851.027-7.703.033-9.336.098-18.672"/><path fill="#FDECF4" d="M228.523 187.39c3.331.82 6.684 1.522 10.04 2.235 1.218.26 2.436.52 3.69.79L245 191v2l-19-2v-2h-19v6h-2v6h-2l.125 2.063c-.15 3.536-1.069 6.57-2.125 9.937h-2l-.113 2.965c-.335 6.673-.739 12.744-3.188 19.027-1.143 3.284-1.385 6.556-1.699 10.008h-1a924 924 0 0 1 .313-10l.068-2.832c.202-5.252.826-9.545 2.881-14.39 1.064-2.564 1.632-5.199 2.238-7.903 1.036-4.346 2.463-7.894 4.5-11.875l.5-3.562c.52-3.58 1.375-5.548 3.5-8.438 5.772-2.886 15.4-.123 21.523 1.39"/><path fill="#FCD9E8" d="M288 685c4.147-.131 7.62.248 11.617 1.34 6.135 1.61 12.291 2.966 18.508 4.222l2.992.631c16.254 3.29 32.467 4.142 49.008 4.432l5.535.117q6.67.142 13.34.258v1q-8.456.255-16.913.482-2.87.08-5.74.166c-22.353.671-22.353.671-29.347-.648l-1-1c-1.4-.214-2.809-.37-4.219-.5l-2.574-.25-2.707-.25q-2.64-.245-5.281-.5l-2.377-.219C317 694 317 694 316 693c-2.18-.397-4.37-.743-6.562-1.062l-3.63-.536L303 691v-2l-2.52-.113-3.293-.2-3.269-.175c-3.093-.543-4.048-1.065-5.918-3.512"/><path fill="#FEE6F0" d="M637 351h1q.219 7.01.427 14.02.072 2.372.146 4.744c.503 16.132.88 32.035-.885 48.111l-.358 3.738-.38 3.567-.334 3.179c-.664 2.846-1.311 3.899-3.616 5.641h-1c-.207-6.643.791-12.926 1.846-19.47 2.276-14.891 2.375-29.999 2.716-45.03l.131-5.418q.158-6.54.307-13.082"/><path fill="#FEE0EE" d="M807 418c-1.55 1.55-3.1 1.217-5.254 1.316l-2.588.127-2.72.12-2.733.13q-3.353.16-6.705.307v2c-4.763.953-9.167 1.083-14 1v2l-2.414.367c-5.396.854-10.42 1.825-15.586 3.633h-4v2l-9 1v2c-6.573 2.434-13.083 3.901-20 5v-2l8-1v-2l8-1v-2a1371 1371 0 0 1 6.75-2l3.797-1.125C752 427 752 427 756 427v-2c42.891-11.054 42.891-11.054 51-7"/><path fill="#FEF5F9" d="M421 152h2l-1 5h-2v3h-2l-.437 1.813c-.45 1.749-.992 3.474-1.563 5.187h-2v4h-2v3h-2v4h-2l-.312 1.625c-1.185 4.092-3.354 7.732-5.313 11.5-1.124 2.35-1.887 4.337-2.375 6.875h-2l-.402 2.168c-.586 2.774-1.33 5.435-2.16 8.144l-.817 2.676L394 213h-2l-.375 2.438L391 218l-2 1v-4h2l-.125-2.187c.134-3.02.877-5.082 2.125-7.813h2v-5h2v-4h2v-5h2l.402-1.734c.592-2.243 1.33-4.352 2.16-6.516l.817-2.14L405 179h2v-3h2l.313-1.562c.93-3.298 2.301-6.304 3.687-9.438h2v-4h2v-3h2v-3h2z"/><path fill="#FEF1F6" d="M239 381c6.516 1.206 12.85 2.69 19.188 4.625l2.55.773c6.861 2.11 13.664 4.384 20.45 6.727l2.858.983A185 185 0 0 1 301 401c-3.097.878-4.906.994-8 0v-2l-8-1v-2l-3.937-.312c-4.965-.536-9.405-1.937-14.063-3.688v-2l-1.977-.148c-4.997-.428-9.294-1.115-14.023-2.852-2.899-.723-5.8-1.434-8.707-2.121L240 384z"/><path fill="#FCDAE9" d="M363 372c2.821 2.821 2.334 5.564 2.379 9.344l.051 2.196c.054 2.32.094 4.64.132 6.96q.066 3.48.143 6.96.049 2.167.08 4.333c.026 3.729.026 3.729 1.215 7.207.317 3.634.512 7.268.719 10.91-.063 2.96-.063 2.96 1.281 4.09.324 2.84.513 5.68.719 8.531.015 2.41.015 2.41 1.281 3.469.141 2.67.042 5.324 0 8h2v10h-1l-.437-3.437c-.175-3.37-.175-3.37-1.563-4.563-.04-2-.043-4 0-6h-2v-11h-2v-15h-2z"/><path fill="#FEFAFC" d="m859 413 1 2-3.824.076q-7.005.142-14.01.296-3.036.065-6.07.125-4.358.088-8.713.187l-2.753.05-2.547.06-2.248.048c-1.932.053-1.932.053-3.835 1.158-2.03.223-4.065.392-6.102.535l-3.671.264-3.852.264-3.875.275q-4.75.336-9.5.662c2.488-2.488 3.526-2.343 6.973-2.598l2.974-.24 3.115-.224a1548 1548 0 0 0 6.098-.473l2.739-.2c2.085-.045 2.085-.045 3.101-1.265 14.894-1.664 30.044-1.103 45-1"/><path fill="#FDECF4" d="M255 430c5.586.414 9.983 1.627 15.125 3.813 3.46 1.429 6.972 2.69 10.5 3.937l3.664 1.297L287 440v2l2.75.125c5.907.792 11.073 4.095 16.25 6.875v2c-5.778-1.723-11.13-3.917-16.562-6.5-7.383-3.5-14.359-6.375-22.383-8.027-2.474-.57-4.744-1.43-7.055-2.473v-2l-5-1z"/><path fill="#FDDEEB" d="M391 218c.22 3.856-.396 6.492-2 10h-2v6h-2v6h-2v6h-2l.063 2.438C381 251 381 251 380 252a86 86 0 0 0-.562 4.563l-.254 2.503L379 261l-2-1c-.774-9.53 1.715-18.01 5.563-26.687 1.588-3.66 2.6-7.318 3.593-11.176.902-2.284 2.013-4.137 4.844-4.137"/><path fill="#FEF4F8" d="M395 528h2l.791 1.69c8.442 22.568 8.442 22.568 22.209 40.31.625 3.063.625 3.063 1 6h-2v-3h-2v-3h-2v-3h-2v-3h-2v-5h-2v-3h-2v-4h-2c-1.765-3.088-2-4.233-2-8h-2v-4h-2c-1.765-3.088-2-4.233-2-8h-2z"/><path fill="#FDE5EF" d="m120.438 415.938 2.216.013q2.673.02 5.346.049v1c-.957.09-.957.09-1.934.184l-2.504.253-2.496.247c-2.053.105-2.053.105-3.066 1.316-2.859.237-5.699.422-8.562.563l-2.444.13q-2.997.159-5.994.307v2l-1.693.244q-3.873.561-7.745 1.131l-2.662.383A206 206 0 0 0 72 427v-2c9.765-3.117 19.509-4.975 29.629-6.535 2.318-.226 2.318-.226 3.371-1.465 5.19-.955 10.187-1.125 15.438-1.062"/><path fill="#FDE9F2" d="M195 417c8.605-.207 16.637-.202 25 2l2.176.57c3.353.878 6.705 1.756 10.05 2.665 4.243 1.146 8.415 2.14 12.774 2.765v2l10 1v2l-14-2v-2l-2.75-.312c-3.307-.461-6.44-1.256-9.66-2.133-7.867-1.994-15.785-2.687-23.846-3.46l-3.38-.349-3.054-.291L196 419z"/><path fill="#FEF8FA" d="M322 322h2q.037 5.955.055 11.908.008 2.026.02 4.054c.013 1.938.018 3.877.023 5.815l.016 3.54C324 350 324 350 323 351a145 145 0 0 0-.562 6.063l-.254 3.347L322 363h-1q-.037-7.794-.055-15.588a2577 2577 0 0 0-.02-5.302c-.013-2.542-.018-5.084-.023-7.626l-.015-2.39c0-3.54.159-6.689 1.113-10.094"/><path fill="#FDD1E5" d="m736 200-4 1v2c-7.242 2.76-14.49 5.083-22 7v2l-9 2v-2l6-1v-2c15.35-7 15.35-7 21-7v-2c3.053-.981 4.947-.981 8 0"/><path fill="#FEF7FA" d="m677 460 2 1-1.68 1.172-2.195 1.578-2.18 1.547c-4.08 3.573-4.258 7.499-4.945 12.703l-1 1-.312 3c-.59 4.725-2.62 8.757-4.688 13h-1v-5h2v-7h2v-8h2v-8h2v-3q1.932-1.044 3.875-2.062l2.18-1.16z"/><path fill="#FEEAF3" d="M505 67v2l4 1v2l4 1v2l4 2v2h2l-1 3-2.562-2.406Q513.72 78.044 512 76.5l-1.676-1.59c-3.142-2.78-5.295-4.261-9.574-4.316-3.678.264-3.678.264-6.75 1.406v-3c3.634-2.326 6.77-2.163 11-2"/><path fill="#FDE5F0" d="M572 655h2v2h-2v3h-2v2l-4 1v3l-4 1v2h-2v3h-2v2l-1.875.25c-2.31.563-2.31.563-3.375 2.813L552 679h-2l-1 2v-4l4-1v-2h2l2-4h2v-2h2v-3l4-1v-2h2v-3l1.938-.312L571 658z"/><path fill="#FDD9E9" d="m657 695-1 2c-2.756.919-4.196 1.102-7.012 1.022l-2.427-.061-2.604-.082-2.678-.072q-4.233-.116-8.466-.245l-5.74-.158Q620.035 697.21 613 697v-1a26029 26029 0 0 1 20.016-.573q3.663-.106 7.328-.208l2.26-.067c4.801-.133 9.594-.171 14.396-.152"/><path fill="#FDEAF2" d="m438 691-4 1v2c-8.978 1.33-17.948 1.088-27 1v-1l1.924-.26q4.35-.587 8.701-1.178l3.027-.408 2.95-.4 2.852-.386c2.03-.294 4.053-.65 6.07-1.028C435 690 435 690 438 691"/><path fill="#FDDDEC" d="m488 75 2 1c-1.375 1.5-1.375 1.5-3 3h-2v3l-4 1v2a181 181 0 0 1-4 4l-1 2c-2.562.625-2.562.625-5 1l-1 5-2-1 2-5h2v-3l4-1v-2l1.875-.187L480 84l1-2.5 1-2.5c2.125-.812 2.125-.812 4-1v-2z"/><path fill="#FEDCEB" d="M776 189v2l-13 1v2l-17 2v-2l12-1v-2c6.12-1.405 11.717-2.233 18-2"/><path fill="#FDE6F0" d="M324 299h1c.85 4.437 1.163 8.671 1.188 13.188l.042 3.667C326 319 326 319 324 322h-2c-.317-7.774.881-15.33 2-23"/><path fill="#FEE1EE" d="M745 430v2h-3v2c-6.573 2.434-13.083 3.901-20 5v-2l8-1v-2l8-1v-2c2.49-.687 4.379-1 7-1"/><path fill="#F9B6D3" d="M197 220h1c.303 5.563-.345 9.538-2.266 14.746-1.106 3.396-1.411 6.705-1.734 10.254h-1c-.11-6.737.299-13.3 1-20l3-1z"/><path fill="#FEFAFC" d="M323 693q4.282.174 8.563.375l2.423.094c4.978.244 9.278.967 14.014 2.531v1q-2.719.039-5.437.063l-3.06.035C337 697 337 697 336 696c-2.18-.397-4.37-.743-6.562-1.062l-3.63-.536L323 694z"/><path fill="#FEEEF5" d="M377 252h1l-1 17h-3l-1 4c-.245-4.918.655-9.185 2-13.875l.578-2.086c.467-1.682.944-3.36 1.422-5.039"/><path fill="#FEE7F1" d="M720 206q-1.934 1.007-3.875 2l-2.18 1.125C712 210 712 210 710 210v2l-9 2v-2l6-1v-2c1.41-.702 2.828-1.386 4.25-2.062l2.39-1.16c2.62-.864 3.809-.708 6.36.222"/><path fill="#FDC1DC" d="M807 418c-1.55 1.55-3.1 1.217-5.254 1.316l-2.588.127-2.72.12-2.733.13q-3.353.16-6.705.307v2l-8 1v-2c4.982-2.517 10.22-2.71 15.688-3.187l2.916-.288c7.135-.656 7.135-.656 9.396.475"/><path fill="#FEFAFC" d="m193.938 414.875 2.091.277c4.004.54 7.99 1.163 11.971 1.848v1c-9.156.35-17.96-.73-27-2v-1c4.453-1.233 8.439-.768 12.938-.125"/><path fill="#FEEAF3" d="M810 246c3 3 3 3 3.328 5.129l-.078 2.434-.078 2.652c-.264 4.277-.665 8.53-1.172 12.785h-1z"/><path fill="#FDE9F2" d="M308 689q3.127.426 6.25.875l3.516.492c2.816.551 4.786 1.191 7.234 2.633-2.732 1.366-4.982 1.128-8 1l-1-1a236 236 0 0 0-7-1z"/><path fill="#FEF7FA" d="m62 431-2.937.875c-3.252 1.761-3.252 1.761-3.684 4.55A86 86 0 0 0 55 444h-1v-6h-2v-4h2l1-3c3.133-1.044 3.99-.934 7 0"/><path fill="#FEEDF4" d="m672 278 2 1c.379 2.215.379 2.215.563 4.938.205 3.669.205 3.669 1.437 7.062.04 2.333.043 4.667 0 7-3-2-3-2-3.432-3.88l-.08-2.253-.107-2.441-.068-2.551-.104-2.574c-.083-2.1-.147-4.2-.209-6.301"/><path fill="#FEF5F9" d="M683 224c-10.374 6.52-10.374 6.52-16 8v-2q1.934-1.007 3.875-2l2.18-1.125C675 226 675 226 677 226v-2c2.49-1.245 3.41-.777 6 0"/><path fill="#F98ABB" d="m497 72-1.715 1.46c-.733.633-1.467 1.264-2.223 1.915l-2.214 1.898c-1.932 1.604-1.932 1.604-2.848 3.727h-3v-2l1.938-1.437C489.284 76.09 489.284 76.09 490 73c4.443-2.278 4.443-2.278 7-1"/><path fill="#FBCFE3" d="M226 189c6.65-.25 12.57.26 19 2v2l-19-2z"/><path fill="#FEFAFC" d="M370 446c2 1 2 1 2.633 2.75 1.211 5.538 1.547 10.582 1.367 16.25-2.262-3.687-2.64-7.54-3.125-11.75l-.262-2.113A824 824 0 0 1 370 446"/><path fill="#FAC1DA" d="M55 434h1l.184 1.934.254 2.503.246 2.497c.105 2.053.105 2.053 1.316 3.066.141 2.67.042 5.324 0 8l-.875-1.937c-.953-2.215-.953-2.215-3.125-3.063z"/><path fill="#F9A7CA" d="m255 430 8 1 1 3c3.008 1.225 3.008 1.225 6 2-2 1-2 1-3.945.441l-2.18-.878-2.195-.872L260 434v-2l-5-1z"/><path fill="#FAC1DA" d="M195 417q3.593-.08 7.188-.125l2.04-.05c4.06-.04 7.122.375 10.772 2.175v1l-19-1z"/><path fill="#FEEEF5" d="M722 440c-4.642 2.533-8.652 4.465-14 5 1.322-2.645 2.645-2.978 5.313-4.187l2.363-1.106c2.58-.785 3.82-.606 6.324.293"/><path fill="#FEF8FA" d="M76 511c3.646 1.215 4.367 2.788 6.148 6.078 1.15 2.593 1.578 5.112 1.852 7.922l-2-1v-4h-2v-3h-2z"/><path fill="#FEEBF3" d="m701 449-3 1v2l-9 2v-2l6-1v-2c3.75-1.125 3.75-1.125 6 0"/><path fill="#FEECF4" d="m488 75 2 1c-1.375 1.5-1.375 1.5-3 3h-2v3l-1.937.375L481 83l-1 2c.56-3.243 1.413-4.93 4-7h2v-2z"/><path fill="#FDD0E4" d="M663 494v7h-2v5h-1c-1.35-7.364-1.35-7.364.375-10.5C662 494 662 494 663 494"/><path fill="#FBC7DE" d="M370 436h1v8h2v10h-1l-.437-3.437c-.175-3.37-.175-3.37-1.563-4.563a92 92 0 0 1-.062-5.062l.027-2.786z"/><path fill="#FAC8DE" d="m102.25 418.813 2.703.082L107 419v1h-6v2h-8c3.146-2.8 5.067-3.353 9.25-3.187"/><path fill="#FEE9F2" d="m679 692-2 3-10-1v-1c4.041-.634 7.907-1.124 12-1"/><path fill="#FEE5F0" d="M590 632h2l-1 4h-2l-.312 2.375C588 641 588 641 585 643c1.958-7.831 1.958-7.831 5-11"/><path fill="#FEFAFC" d="M56 448c2.52 4.87 3.104 8.49 3 14l-.937-1.937c-.898-2-.898-2-2.063-3.063a75 75 0 0 1-.062-4.562l.027-2.504z"/><path fill="#FFE8F3" d="m930 427 9 1 1 3h-5v-2l-5-1z"/><path fill="#FDE9F1" d="m218 377 10 1c-3.435 2.29-4.985 2.178-9 2z"/><path fill="#FDE3EE" d="M265 199c7.385.492 7.385.492 10.5 3.063L277 204q-2.44-.676-4.875-1.375l-2.742-.773C267 201 267 201 265 199"/><path fill="#FBCCE1" d="M377 472h2v8h2l-1 4-3-2c-.293-2.383-.293-2.383-.187-5.125l.082-2.758z"/><path fill="#FEFEFE" d="m757 384-1 2c-2.066.414-2.066.414-4.562.625l-2.504.227L747 387c1-2 1-2 3.313-3.187 2.807-.85 3.989-.812 6.687.187"/><path fill="#FEF8FB" d="M383 497h2l2 9h-2c-1.498-3.371-2-5.204-2-9"/><path fill="#FAC8DE" d="m58 453 2 1c.484 2.215.484 2.215.75 4.938l.297 2.714C61 464 61 464 59 466c-.872-2.995-1.108-5.636-1.062-8.75l.027-2.422z"/><path fill="#FDE1ED" d="M193 416v1c-8.571.286-8.571.286-12-2 4.517-1.369 7.588-.47 12 1"/><path fill="#FBC7DE" d="M380 247c.563 1.938.563 1.938 1 4l-1 1a86 86 0 0 0-.562 4.563l-.254 2.503L379 261l-2-1v-9l3-1z"/><path fill="#FDD1E4" d="M654 518h1v5h-2v6l-2-1c-.232-3.407-.357-5.41 1.438-8.375z"/><path fill="#FEF9FB" d="M375 470h2c1.158 3.473 1.069 6.36 1 10l-.937-1.937c-.898-2-.898-2-2.063-3.063a100 100 0 0 1 0-5"/><path fill="#FDDFED" d="M659 500h1l-1 12-2-1v-7h2z"/><path fill="#FEF8FB" d="M452 111c0 3 0 3-2.5 5.688L447 119l-1-2h2v-3c2-1.687 2-1.687 4-3"/></svg>