
        <svg xmlns="http://www.w3.org/2000/svg" xmlns:xlink="http://www.w3.org/1999/xlink" version="1.1" width="3142.8571428571427" 
        height="1364.2857142857144" viewBox="0 0 3142.8571428571427 1364.2857142857144">
			
			<g transform="scale(7.142857142857143) translate(10, 10)">
				<defs id="SvgjsDefs2163"><linearGradient id="SvgjsLinearGradient2170"><stop id="SvgjsStop2171" stop-color="#ee2a7b" offset="0"></stop><stop id="SvgjsStop2172" stop-color="#ff7db8" offset="1"></stop></linearGradient></defs><g id="SvgjsG2164" featureKey="rootContainer" transform="matrix(1,0,0,1,0,0)" fill="#111111"><path xmlns="http://www.w3.org/2000/svg" fill-rule="evenodd" d=" M0,0 H420 V171 H0,0 z M2,2 H418 V169 H2,2 z M6,6 H414 V165 H6 z M8,8 H412 V163 H6,8 z "></path></g><g id="SvgjsG2165" featureKey="symbolFeature-0" transform="matrix(1.1960577690646346,0,0,1.1960577690646346,40.198306947523186,25.490383502812566)" fill="url(#SvgjsLinearGradient2170)"><path xmlns="http://www.w3.org/2000/svg" d="M77.311,31.649c2.186,5.276,2.675,11.425,1.44,17.585c-4.106,0.438-8.234,1.627-12.108,3.572  c0.143-1.424,0.229-2.862,0.229-4.313c0-4.197-0.618-8.305-1.768-12.171C68.936,33.806,73.105,32.202,77.311,31.649z M50,20.492  c7.971,6.072,12.871,16.66,12.871,28.001c0,11.337-4.9,21.923-12.871,27.995c-7.971-6.074-12.87-16.66-12.87-27.995  C37.13,37.153,42.029,26.566,50,20.492z M22.69,31.649c4.206,0.553,8.375,2.157,12.207,4.674c-1.149,3.866-1.768,7.974-1.768,12.17  c0,1.452,0.085,2.891,0.229,4.315c-3.876-1.946-8.004-3.137-12.11-3.574C20.014,43.074,20.504,36.926,22.69,31.649z M22.834,75.262  c-8.006-4.623-13.51-12.357-14.639-20.443c7.565-3.067,17.016-2.17,25.022,2.455c0.325,0.188,0.636,0.39,0.952,0.586  c1.826,8.158,5.996,15.436,11.84,20.512C38.792,80.613,30.201,79.516,22.834,75.262z M77.165,75.262  c-7.366,4.254-15.955,5.351-23.174,3.109c5.845-5.075,10.015-12.354,11.841-20.514c0.314-0.196,0.623-0.396,0.947-0.584  c8.007-4.622,17.458-5.521,25.024-2.454C90.676,62.904,85.174,70.639,77.165,75.262z"></path></g><g id="SvgjsG2166" featureKey="nameFeature-0" transform="matrix(1.0699762963091157,0,0,1.0699762963091157,167.51765761501377,56.763538805865245)" fill="#111111"><path d="M25.76 29.08 c0.2 0 0.36 0.04 0.48 0.2 c0.16 0.12 0.24 0.28 0.24 0.48 s-0.08 0.36 -0.24 0.52 c-0.12 0.12 -0.32 0.2 -0.52 0.2 l-0.56 -0.04 c-0.24 0 -0.4 0.08 -0.56 0.24 c-0.12 0.16 -0.2 0.36 -0.2 0.6 l0 6.48 c0 0.2 -0.04 0.4 -0.2 0.52 c-0.16 0.16 -0.32 0.24 -0.56 0.24 c-0.36 0 -0.72 0.04 -1.12 0.16 l-1.44 0.48 c-1.08 0.36 -2.08 0.68 -3.08 0.92 c-0.96 0.2 -2.12 0.32 -3.44 0.32 c-3.84 0 -6.84 -1.04 -9 -3.12 c-2.16 -2.12 -3.24 -5.16 -3.24 -9.2 c0 -4.08 1.08 -7.2 3.28 -9.32 c2.16 -2.12 5.28 -3.16 9.28 -3.16 c1.16 0 2.2 0.08 3.12 0.32 c0.08 0 0.16 0 0.24 0.04 c0.04 0 0.08 0.04 0.16 0.04 l0.08 0 c0.28 0.08 0.52 0.12 0.8 0.2 l0.04 0.04 l0.12 0 l0 0 l0.04 0 c0 0.04 0.04 0.04 0.04 0.04 c0.04 0 0.04 0.04 0.04 0.04 c0.52 0.16 1.04 0.36 1.48 0.64 c0.88 0.48 1.56 1.08 2 1.76 c0.48 0.64 0.64 1.36 0.52 2.04 c-0.12 0.64 -0.4 1.12 -0.88 1.48 s-1.08 0.48 -1.8 0.36 c-0.6 -0.08 -1.04 -0.32 -1.36 -0.64 c-0.32 -0.36 -0.44 -0.8 -0.36 -1.32 c0.04 -0.2 0.12 -0.44 0.28 -0.72 c0.16 -0.24 0.28 -0.48 0.32 -0.76 s0.08 -0.48 0.08 -0.72 c-0.2 -0.6 -0.72 -1 -1.64 -1.24 c-0.88 -0.2 -1.84 -0.32 -2.88 -0.32 c-0.68 0 -1.32 0.08 -1.92 0.28 c-1.32 0.44 -2.4 1.32 -3.2 2.68 c-1.24 1.96 -1.84 4.84 -1.84 8.6 c0 7.04 2.2 10.56 6.56 10.56 c0.84 0 1.56 -0.12 2.16 -0.4 c0.64 -0.24 1.24 -0.68 1.8 -1.32 l0 -5.96 c0 -0.6 -0.28 -0.88 -0.76 -0.88 l-1.68 0.04 c-0.2 0 -0.36 -0.04 -0.48 -0.2 c-0.16 -0.12 -0.24 -0.28 -0.24 -0.48 l0 -0.04 c0 -0.2 0.08 -0.36 0.2 -0.48 c0.16 -0.16 0.32 -0.2 0.52 -0.2 l9.32 0 z M42.760000000000005 24.52 c-1.48 -1.36 -3.44 -2 -5.84 -2 c-3.04 0 -5.32 0.72 -6.84 2.2 c-1.56 1.44 -2.32 3.72 -2.32 6.8 c0 3.04 0.76 5.28 2.24 6.72 s3.8 2.16 7 2.16 c1.88 0 3.52 -0.36 4.88 -1.08 c1.16 -0.64 2.04 -1.44 2.64 -2.52 c0.08 -0.16 0.12 -0.32 0.08 -0.48 s-0.12 -0.28 -0.24 -0.4 c-0.2 -0.12 -0.36 -0.16 -0.52 -0.12 c-0.2 0.04 -0.32 0.16 -0.44 0.32 c-0.44 0.64 -1 1.2 -1.68 1.68 c-0.92 0.64 -2 0.96 -3.24 0.96 c-1.68 -0.04 -2.96 -0.64 -3.8 -1.84 c-0.68 -1 -1.12 -2.36 -1.24 -4.04 c0 -0.36 0.08 -0.64 0.32 -0.88 c0.2 -0.24 0.48 -0.36 0.8 -0.36 l8.92 0 c0.44 0 0.76 -0.16 1.08 -0.44 c0.28 -0.28 0.44 -0.64 0.44 -1.04 c-0.04 -2.44 -0.8 -4.32 -2.24 -5.64 z M34.24 25.68 c0.56 -1.2 1.4 -1.8 2.56 -1.8 c0.96 0 1.68 0.4 2.12 1.24 s0.68 2.12 0.68 3.88 c0 0.48 -0.08 0.84 -0.2 1.04 c-0.16 0.16 -0.36 0.28 -0.6 0.28 l-4.2 0 c-0.32 0 -0.6 -0.12 -0.8 -0.36 c-0.24 -0.24 -0.32 -0.52 -0.32 -0.88 c0.08 -1.36 0.36 -2.48 0.76 -3.4 z M66.8 39.32 c0 -0.2 -0.04 -0.36 -0.2 -0.48 c-0.12 -0.12 -0.28 -0.16 -0.48 -0.16 l-0.64 0.04 c-0.32 0 -0.52 -0.28 -0.52 -0.76 l0 -9.68 c0 -2 -0.4 -3.44 -1.24 -4.36 c-0.84 -0.96 -2.16 -1.4 -3.96 -1.4 c-1.48 0 -2.72 0.36 -3.76 1.04 c-0.72 0.48 -1.32 1.08 -1.8 1.8 c-0.12 0.16 -0.28 0.2 -0.44 0.12 c-0.16 -0.04 -0.24 -0.16 -0.24 -0.36 l0 -0.8 l0 0 c0 -0.4 -0.16 -0.72 -0.4 -1 c-0.28 -0.28 -0.6 -0.4 -0.96 -0.4 l-5.12 0 c-0.16 0 -0.32 0.04 -0.44 0.2 c-0.16 0.12 -0.2 0.28 -0.2 0.44 c0 0.2 0.08 0.32 0.2 0.48 c0.12 0.12 0.28 0.16 0.48 0.16 l0.64 -0.04 c0.36 0.08 0.52 0.36 0.52 0.8 l0 13 c0 0.4 -0.16 0.68 -0.52 0.76 l-0.64 -0.04 c-0.2 0 -0.36 0.04 -0.48 0.16 s-0.2 0.28 -0.2 0.48 l0 0.04 c0 0.16 0.04 0.32 0.2 0.44 c0.12 0.12 0.28 0.2 0.44 0.2 l7.92 0 c0.16 0 0.32 -0.08 0.44 -0.2 s0.2 -0.28 0.2 -0.44 l0 -0.04 c0 -0.2 -0.08 -0.36 -0.2 -0.48 s-0.28 -0.16 -0.48 -0.16 l-0.88 0.04 c-0.36 0 -0.52 -0.28 -0.52 -0.76 l0 -5.92 c0 -1.6 0.2 -3 0.64 -4.12 c0.44 -1.16 0.96 -2.04 1.64 -2.64 c0.64 -0.6 1.32 -0.88 2 -0.88 c0.8 0 1.32 0.28 1.56 0.88 c0.24 0.56 0.36 1.56 0.36 2.96 l0 9.72 c0 0.4 -0.2 0.68 -0.56 0.76 l-0.84 -0.04 c-0.2 0 -0.36 0.04 -0.48 0.16 s-0.2 0.28 -0.2 0.48 l0 0.04 c0 0.16 0.08 0.32 0.2 0.44 s0.28 0.2 0.44 0.2 l7.88 0 c0.2 0 0.36 -0.08 0.48 -0.2 s0.16 -0.28 0.16 -0.44 l0 -0.04 z M86.56 17.68 c1.44 1.12 2.16 2.8 2.16 5.08 c0 2.2 -0.72 3.96 -2.12 5.28 s-3.32 2 -5.68 2 l-3.2 0 c-0.2 0 -0.36 0.08 -0.52 0.2 c-0.16 0.16 -0.24 0.32 -0.24 0.56 l0 6.92 c0 0.56 0.28 0.88 0.8 0.88 l1.24 -0.04 c0.2 0 0.4 0.04 0.52 0.2 c0.16 0.12 0.24 0.28 0.24 0.52 c0 0.2 -0.08 0.36 -0.24 0.52 c-0.12 0.12 -0.28 0.2 -0.48 0.2 l-9.08 0 c-0.2 0 -0.36 -0.08 -0.48 -0.2 c-0.16 -0.16 -0.24 -0.32 -0.24 -0.52 s0.08 -0.4 0.24 -0.52 c0.16 -0.16 0.32 -0.2 0.52 -0.2 l0.64 0.04 l0.12 0 c0.44 0 0.68 -0.32 0.68 -0.88 l0 -19.44 c0 -0.32 -0.08 -0.56 -0.2 -0.68 c-0.16 -0.16 -0.4 -0.2 -0.72 -0.2 l-0.48 0.04 c-0.24 0 -0.4 -0.04 -0.56 -0.2 c-0.16 -0.12 -0.24 -0.32 -0.24 -0.52 s0.08 -0.36 0.24 -0.52 c0.12 -0.12 0.28 -0.2 0.48 -0.2 l9.88 0 c3 0 5.24 0.56 6.72 1.68 z M81.84 26.92 c0.72 -1.08 1.08 -2.48 1.08 -4.16 c0 -1.6 -0.36 -2.88 -1.08 -3.88 c-0.68 -0.96 -1.64 -1.48 -2.76 -1.48 l-1.64 0 c-0.08 0 -0.2 0.04 -0.32 0.16 c-0.08 0.08 -0.16 0.2 -0.16 0.32 l0 9.96 c0 0.2 0.08 0.36 0.24 0.52 s0.32 0.24 0.52 0.24 l1.48 0 c1.04 0 1.96 -0.56 2.64 -1.68 z M92 24.880000000000003 c1.48 -1.52 3.72 -2.28 6.72 -2.28 s5.24 0.76 6.72 2.28 s2.2 3.72 2.2 6.6 c0 5.96 -2.96 8.92 -8.92 8.92 c-3 0 -5.24 -0.76 -6.72 -2.28 s-2.24 -3.72 -2.24 -6.64 c0 -2.88 0.76 -5.08 2.24 -6.6 z M96.16 37.28 c0.52 1.16 1.36 1.72 2.56 1.72 s2.04 -0.56 2.56 -1.68 s0.76 -3.04 0.76 -5.76 c0 -2.76 -0.24 -4.72 -0.76 -5.88 s-1.36 -1.72 -2.56 -1.72 s-2.04 0.56 -2.56 1.72 s-0.8 3.12 -0.8 5.88 c0 2.68 0.28 4.6 0.8 5.72 z M111.24 34.24 c-0.2 0.04 -0.32 0.08 -0.48 0.24 c-0.12 0.12 -0.16 0.28 -0.2 0.44 l-0.12 3.24 c0 0.32 0.12 0.6 0.36 0.84 c0.2 0.24 0.48 0.36 0.84 0.36 c0.32 0 0.72 0.04 1.12 0.16 c1.36 0.36 2.32 0.6 2.96 0.72 s1.28 0.16 1.88 0.16 c2.12 0 3.8 -0.52 5.12 -1.6 c1.28 -1.04 1.92 -2.52 1.92 -4.44 c0 -1.4 -0.36 -2.52 -1.04 -3.4 s-1.96 -1.56 -3.8 -2.04 l-2.76 -0.72 c-0.72 -0.2 -1.28 -0.48 -1.64 -0.84 c-0.4 -0.36 -0.56 -0.8 -0.56 -1.32 c0 -0.6 0.24 -1.12 0.72 -1.52 c0.52 -0.44 1.16 -0.64 2 -0.64 c1.44 0 2.6 0.36 3.44 1.12 c0.68 0.6 1.08 1.32 1.2 2.08 c0.04 0.16 0.12 0.32 0.24 0.44 c0.12 0.08 0.24 0.12 0.4 0.12 c0.2 0 0.32 -0.04 0.44 -0.16 s0.2 -0.24 0.2 -0.44 l0.16 -2.52 c0 -0.32 -0.12 -0.6 -0.32 -0.8 s-0.48 -0.32 -0.8 -0.32 l0 0 c-0.48 0 -1.16 -0.12 -2.04 -0.36 c-0.64 -0.2 -1.24 -0.32 -1.68 -0.4 s-0.96 -0.12 -1.52 -0.12 c-2.08 0 -3.72 0.52 -4.88 1.56 c-1.12 1 -1.72 2.36 -1.72 4.04 c0 1.36 0.36 2.48 1.12 3.36 c0.72 0.88 1.88 1.52 3.44 1.96 l2.88 0.8 c0.92 0.24 1.6 0.56 2 0.92 c0.36 0.36 0.56 0.84 0.56 1.48 c0 0.72 -0.24 1.32 -0.76 1.72 c-0.52 0.44 -1.24 0.64 -2.12 0.64 c-1.6 0 -3 -0.48 -4.12 -1.36 c-0.96 -0.76 -1.52 -1.68 -1.68 -2.76 c0 -0.2 -0.08 -0.36 -0.24 -0.48 c-0.12 -0.08 -0.28 -0.16 -0.48 -0.16 l-0.04 0 z M130.8 19.48 c-0.72 0 -1.36 -0.24 -1.84 -0.76 c-0.52 -0.52 -0.8 -1.12 -0.8 -1.84 c0 -0.76 0.28 -1.36 0.8 -1.88 c0.48 -0.52 1.12 -0.76 1.84 -0.76 s1.36 0.24 1.88 0.76 s0.76 1.12 0.76 1.88 c0 0.72 -0.24 1.32 -0.76 1.84 s-1.16 0.76 -1.88 0.76 z M134.60000000000002 38.68 c0.16 0 0.36 0.04 0.48 0.16 c0.12 0.16 0.2 0.32 0.2 0.48 c0 0.2 -0.04 0.36 -0.2 0.48 c-0.12 0.12 -0.28 0.2 -0.44 0.2 l-7.64 0 c-0.2 0 -0.36 -0.08 -0.48 -0.2 s-0.2 -0.28 -0.2 -0.48 c0 -0.16 0.08 -0.32 0.2 -0.48 c0.16 -0.12 0.32 -0.16 0.52 -0.16 l0.6 0.04 l0.08 0 c0.32 0 0.44 -0.28 0.44 -0.76 l0 -13 c0 -0.44 -0.16 -0.72 -0.48 -0.8 l-0.64 0.04 c-0.2 0 -0.36 -0.04 -0.48 -0.16 c-0.12 -0.16 -0.2 -0.28 -0.2 -0.48 c0 -0.16 0.08 -0.32 0.2 -0.44 c0.12 -0.16 0.28 -0.2 0.44 -0.2 l5.8 0 c0.16 0 0.32 0.04 0.44 0.2 c0.12 0.12 0.2 0.28 0.2 0.44 l0 14.4 c0 0.52 0.16 0.8 0.52 0.76 z M156.52 39.32 c0 -0.16 -0.08 -0.32 -0.2 -0.48 c-0.16 -0.12 -0.32 -0.16 -0.52 -0.16 l-0.6 0.04 c-0.36 -0.04 -0.52 -0.28 -0.52 -0.76 l0 -15.04 l-5.28 0 c-0.24 0 -0.48 0.08 -0.64 0.24 c-0.16 0.2 -0.24 0.4 -0.24 0.64 l0 0.04 c0 0.08 0 0.16 0.08 0.24 l0.24 0.12 c0.12 0 0.24 0.04 0.36 0.16 c0.12 0.08 0.16 0.28 0.16 0.6 l0 6.2 c-0.04 1.56 -0.24 2.88 -0.64 4 s-0.92 1.96 -1.56 2.52 s-1.24 0.84 -1.92 0.84 c-0.72 0 -1.16 -0.32 -1.4 -0.88 c-0.24 -0.6 -0.36 -1.56 -0.36 -2.96 l0 -11.76 l-6.48 0 c-0.16 0 -0.32 0.04 -0.44 0.2 c-0.12 0.12 -0.2 0.28 -0.2 0.44 c0 0.2 0.08 0.32 0.2 0.48 c0.16 0.12 0.32 0.16 0.48 0.16 l0.68 -0.04 c0.32 0 0.52 0.24 0.52 0.76 l0 9.52 c0 2.08 0.4 3.6 1.2 4.52 c0.8 0.96 2.08 1.44 3.8 1.44 c2.28 0 4 -0.8 5.24 -2.44 c0.16 -0.2 0.36 -0.24 0.56 -0.2 c0.2 0.08 0.32 0.24 0.32 0.48 l0 0 c0 0.52 0.2 0.92 0.52 1.24 c0.32 0.36 0.72 0.52 1.2 0.52 l4.76 0 c0.2 0 0.36 -0.08 0.48 -0.2 s0.2 -0.28 0.2 -0.48 z M189.24 39.32 c0 -0.16 -0.08 -0.32 -0.2 -0.48 c-0.16 -0.12 -0.32 -0.16 -0.52 -0.16 l-0.64 0.04 c-0.32 0 -0.52 -0.28 -0.52 -0.76 l0 -9.68 c0 -2 -0.36 -3.44 -1.16 -4.36 c-0.8 -0.96 -2.04 -1.4 -3.76 -1.4 c-1.48 0 -2.76 0.36 -3.84 1.08 c-0.72 0.52 -1.32 1.16 -1.8 1.92 c-0.12 0.16 -0.28 0.24 -0.52 0.24 c-0.2 -0.04 -0.32 -0.16 -0.4 -0.36 c-0.28 -0.8 -0.68 -1.44 -1.2 -1.88 c-0.76 -0.68 -1.88 -1 -3.36 -1 c-1.44 0 -2.68 0.36 -3.72 1.04 c-0.64 0.44 -1.2 1 -1.68 1.64 c-0.12 0.16 -0.28 0.2 -0.44 0.16 c-0.2 -0.08 -0.28 -0.2 -0.28 -0.4 l0 -0.68 l0 0 c-0.04 -0.4 -0.16 -0.72 -0.4 -0.96 c-0.24 -0.28 -0.56 -0.4 -0.92 -0.4 l-5.2 0 c-0.2 0 -0.32 0.04 -0.48 0.2 c-0.12 0.12 -0.16 0.28 -0.16 0.44 c0 0.2 0.04 0.32 0.2 0.48 c0.12 0.12 0.28 0.16 0.48 0.16 l0.64 -0.04 c0.36 0.08 0.52 0.36 0.52 0.8 l0 13 c0 0.4 -0.16 0.68 -0.52 0.76 l-0.64 -0.04 c-0.2 0 -0.36 0.04 -0.48 0.16 c-0.16 0.16 -0.2 0.32 -0.2 0.48 c0 0.2 0.04 0.36 0.2 0.48 c0.12 0.12 0.28 0.2 0.44 0.2 l7.76 0 c0.2 0 0.36 -0.08 0.48 -0.2 s0.2 -0.28 0.2 -0.48 c0 -0.16 -0.08 -0.32 -0.2 -0.48 c-0.16 -0.12 -0.32 -0.16 -0.52 -0.16 l-0.72 0.04 c-0.36 0.04 -0.52 -0.24 -0.52 -0.76 l0 -6.52 c0.08 -1.44 0.32 -2.72 0.8 -3.76 c0.44 -1.04 1 -1.88 1.6 -2.44 c0.64 -0.56 1.24 -0.84 1.8 -0.84 c0.68 0 1.12 0.28 1.32 0.84 c0.24 0.56 0.32 1.56 0.32 3 l0 9.72 c0 0.4 -0.16 0.68 -0.52 0.76 l-0.72 -0.04 c-0.2 0 -0.36 0.04 -0.52 0.16 c-0.12 0.16 -0.2 0.32 -0.2 0.48 c0 0.2 0.08 0.36 0.2 0.48 s0.28 0.2 0.48 0.2 l7.84 0 c0.16 0 0.32 -0.08 0.44 -0.2 c0.16 -0.12 0.2 -0.28 0.2 -0.48 c0 -0.16 -0.04 -0.32 -0.2 -0.48 c-0.12 -0.12 -0.28 -0.16 -0.48 -0.16 l-0.72 0.04 c-0.36 0 -0.52 -0.28 -0.52 -0.76 l0 -6.12 c0.04 -1.52 0.28 -2.84 0.72 -4 c0.48 -1.12 1 -1.96 1.68 -2.56 c0.64 -0.6 1.28 -0.88 1.88 -0.88 c0.64 0 1.04 0.28 1.24 0.88 s0.32 1.56 0.32 2.96 l0 9.72 c0 0.4 -0.2 0.68 -0.52 0.76 l-0.76 -0.04 c-0.2 0 -0.36 0.04 -0.48 0.16 c-0.16 0.16 -0.2 0.32 -0.2 0.48 c0 0.2 0.04 0.36 0.16 0.48 c0.16 0.12 0.32 0.2 0.48 0.2 l7.76 0 c0.2 0 0.36 -0.08 0.48 -0.2 s0.2 -0.28 0.2 -0.48 z"></path></g>
			</g>
		</svg>
	